<?xml version="1.0" encoding="utf-8"?>
<!-- Generator: Adobe Illustrator 25.0.1, SVG Export Plug-In . SVG Version: 6.00 Build 0)  -->
<svg version="1.1" id="Layer_1" xmlns="http://www.w3.org/2000/svg" xmlns:xlink="http://www.w3.org/1999/xlink" x="0px" y="0px"
	 viewBox="0 0 123.8 86.7" style="enable-background:new 0 0 123.8 86.7;" xml:space="preserve">
<style type="text/css">
	.st0{fill:#F7746D;}
	.st1{fill:#996D4B;}
</style>
<g>
	<g>
		<path class="st0" d="M123.8,69.2c0-15.6-12.2-28.3-27.8-29.5c0.2-1.7,0.4-3.3,0.4-5.1C96.4,15.5,80.6,0,61.1,0
			C41.6,0,25.8,15.5,25.8,34.6c0,0.3,0,0.5,0,0.8C10.9,40.4,0,55.3,0,73c0,4.8,0.8,9.8,2.3,13.8H118
			C121.7,81.7,123.8,75.7,123.8,69.2z"/>
	</g>
	<path class="st1" d="M67.5,86.7V72.2l18.7-18.6c1.9-1.9,1.9-5,0-6.9c-1.9-1.9-5-1.9-7,0L67.5,58.3V28c0-3-2.5-5.5-5.6-5.5
		S56.3,25,56.3,28v30.3L44.7,46.6c-1.9-1.9-5-1.9-6.9,0c-1.9,1.9-2,5-0.1,6.9l18.6,18.6v14.5H67.5z"/>
</g>
</svg>
