<?xml version="1.0" encoding="utf-8"?>
<!-- Generator: Adobe Illustrator 25.0.1, SVG Export Plug-In . SVG Version: 6.00 Build 0)  -->
<svg version="1.1" id="Layer_1" xmlns="http://www.w3.org/2000/svg" xmlns:xlink="http://www.w3.org/1999/xlink" x="0px" y="0px"
	 viewBox="0 0 157.1 100" style="enable-background:new 0 0 157.1 100;" xml:space="preserve">
<style type="text/css">
	.st0{fill:#FFFFFF;}
</style>
<path class="st0" d="M157.1,74.7c0-11.5-7.5-21.2-17.9-24.5c0.2-1.3,0.2-2.6,0.2-3.9c0-17.4-14.1-31.4-31.4-31.4
	c-5.2,0-10.1,1.3-14.4,3.5C87.8,7.4,76.3,0,63.1,0C43.9,0,28.4,15.5,28.4,34.6c0,1.1,0.1,2.1,0.1,3.1C12.5,39.2,0,52.4,0,68.8
	C0,86.2,14.1,100,31.4,100h100l0,0C146.1,100,157.1,88.9,157.1,74.7z"/>
</svg>
