<?xml version="1.0" encoding="utf-8"?>
<!-- Generator: Adobe Illustrator 25.0.1, SVG Export Plug-In . SVG Version: 6.00 Build 0)  -->
<svg version="1.1" id="Layer_1" xmlns="http://www.w3.org/2000/svg" xmlns:xlink="http://www.w3.org/1999/xlink" x="0px" y="0px"
	 viewBox="0 0 100 182" style="enable-background:new 0 0 100 182;" xml:space="preserve">
<style type="text/css">
	.st0{fill:#F7746D;}
	.st1{fill:#996D4B;}
</style>
<g>
	<g>
		<path class="st0" d="M100,63.1c0-14.1-11.5-25.6-25.6-25.6c-1.2,0-2.5,0.1-3.7,0.3c2.4-3.8,3.8-8.3,3.8-13.2C74.6,11,63.6,0,50,0
			C36.4,0,25.4,11,25.4,24.6c0,4.8,1.4,9.4,3.8,13.2c-1.2-0.2-2.4-0.3-3.7-0.3C11.5,37.5,0,48.9,0,63.1c0,9.2,4.8,17.2,12.1,21.7
			c-2.6,3.6-4.2,8-4.2,12.8c0,11.9,9.7,21.6,21.6,21.6c9.6,0,17.8-6.3,20.5-15c2.8,8.7,10.9,15,20.5,15c11.9,0,21.6-9.7,21.6-21.6
			c0-4.8-1.6-9.2-4.2-12.8C95.2,80.3,100,72.2,100,63.1z"/>
	</g>
	<g>
		<g>
			<path class="st1" d="M49.8,182c-1.5,0-3.2-1.2-3.2-2.7V50.6c0-1.5,1.7-2.7,3.2-2.7c1.5,0,3.2,1.2,3.2,2.7v128.6
				C53,180.8,51.3,182,49.8,182z"/>
		</g>
		<g>
			<path class="st1" d="M50,78.9c-0.7,0-1.4-0.3-1.9-0.8L33.1,63.1c-1.1-1.1-1.1-2.8,0-3.9c1.1-1.1,2.8-1.1,3.9,0l13,13l13-13
				c1.1-1.1,2.8-1.1,3.9,0c1.1,1.1,1.1,2.8,0,3.9L51.9,78.1C51.4,78.6,50.7,78.9,50,78.9z"/>
		</g>
		<g>
			<path class="st1" d="M50,97.9c-0.7,0-1.4-0.3-1.9-0.8l-9.7-9.7c-1.1-1.1-1.1-2.8,0-3.9c1.1-1.1,2.8-1.1,3.9,0l7.8,7.8l7.8-7.8
				c1.1-1.1,2.8-1.1,3.9,0c1.1,1.1,1.1,2.8,0,3.9l-9.7,9.7C51.4,97.6,50.7,97.9,50,97.9z"/>
		</g>
	</g>
</g>
</svg>
