<?xml version="1.0" encoding="utf-8"?>
<!-- Generator: Adobe Illustrator 25.0.1, SVG Export Plug-In . SVG Version: 6.00 Build 0)  -->
<svg version="1.1" id="Layer_1" xmlns="http://www.w3.org/2000/svg" xmlns:xlink="http://www.w3.org/1999/xlink" x="0px" y="0px"
	 viewBox="0 0 100 97.7" style="enable-background:new 0 0 100 97.7;" xml:space="preserve">
<style type="text/css">
	.st0{fill:#F7746D;}
	.st1{fill:#FFEFFF;}
	.st2{fill:#FFEF5C;}
</style>
<g>
	<path class="st0" d="M80.4,92.6c9.2-6.7,12.6-18.4,9.2-28.7c8.7-6.4,12.7-17.9,9.2-28.7C95.1,24.4,85,17.5,74.2,17.6
		C70.9,7.3,61.2-0.1,49.8,0c-11.4,0.1-21,7.5-24.3,17.8c-10.8,0.1-20.8,7-24.3,17.8C-2.2,46.5,1.9,58,10.7,64.3
		c-3.3,10.3,0.2,22,9.5,28.6c9.2,6.6,21.4,6.2,30.1-0.1C59,99,71.2,99.3,80.4,92.6z"/>
	<path class="st1" d="M57.9,62c2.3-1.7,3.7-4.3,3.9-7c1.4-2.3,1.8-5.2,0.9-7.9c-0.9-2.8-3-4.8-5.4-5.8c-1.8-2-4.4-3.3-7.3-3.3
		c-2.9,0-5.5,1.3-7.2,3.4c-2.5,1.1-4.5,3.1-5.4,5.9c-0.9,2.8-0.4,5.6,1,7.9c0.2,2.7,1.6,5.3,3.9,6.9c2.4,1.7,5.2,2.2,7.8,1.5
		C52.7,64.2,55.6,63.7,57.9,62z"/>
	<polygon class="st2" points="53.5,57.6 55.1,56.5 51.8,51.9 56.8,50.3 56.1,48 51,49.7 51,44 49,44 49,49.8 43.5,48.1 42.9,50 
		48.4,51.8 45,56.5 46.7,57.7 50,53 	"/>
</g>
</svg>
