<?xml version="1.0" encoding="utf-8"?>
<!-- Generator: Adobe Illustrator 25.0.1, SVG Export Plug-In . SVG Version: 6.00 Build 0)  -->
<svg version="1.1" id="Layer_1" xmlns="http://www.w3.org/2000/svg" xmlns:xlink="http://www.w3.org/1999/xlink" x="0px" y="0px"
	 viewBox="0 0 104.6 104.2" style="enable-background:new 0 0 104.6 104.2;" xml:space="preserve">
<style type="text/css">
	.st0{fill:#3FB25A;}
	.st1{fill:#F7746D;}
	.st2{fill:#FFEFFF;}
	.st3{fill:#FFEF5C;}
</style>
<g>
	<path class="st0" d="M89.7,48.4C68.8,69.4,42.5,62,42.5,62s-7.4-26.2,13.6-47.2c21-21,47.2-13.6,47.2-13.6S110.7,27.5,89.7,48.4z"
		/>
	<path class="st0" d="M43.7,23.4C54.5,43.9,43,61.7,43,61.7s-21.2-0.6-32-21.1C0.2,20.1,11.7,2.3,11.7,2.3S33,2.9,43.7,23.4z"/>
	<g>
		<path class="st1" d="M82.5,52.2c-2.9-9.1-11.3-14.8-20.4-14.8c-2.8-8.6-10.8-14.8-20.4-14.8c-9.5,0-17.6,6.2-20.4,14.8
			c-9,0-17.4,5.7-20.4,14.8c-2.9,9.1,0.5,18.6,7.8,23.9c-2.8,8.6,0.1,18.3,7.8,23.9c7.7,5.6,17.9,5.3,25.2,0
			c7.3,5.3,17.5,5.6,25.2,0c7.7-5.6,10.6-15.4,7.8-23.9C82,70.8,85.5,61.2,82.5,52.2z"/>
		<path class="st2" d="M52.4,62c-0.7-2.3-2.5-4-4.5-4.9c-1.5-1.7-3.6-2.8-6.1-2.8s-4.6,1.1-6.1,2.8c-2.1,0.9-3.8,2.6-4.5,4.9
			c-0.8,2.3-0.4,4.7,0.8,6.6c0.2,2.2,1.3,4.4,3.3,5.8c2,1.4,4.4,1.8,6.5,1.3c2.2,0.5,4.6,0.1,6.5-1.3c2-1.4,3.1-3.6,3.3-5.8
			C52.8,66.7,53.1,64.3,52.4,62z"/>
		<polygon class="st3" points="47.7,64.4 47.3,62.8 42.8,64.2 42.8,59.8 40.8,59.8 40.8,64.2 36.3,62.8 35.8,64.4 40.4,65.9 
			37.6,69.8 38.9,70.8 41.8,66.9 44.6,70.8 46,69.8 43.2,65.9 		"/>
	</g>
</g>
</svg>
