<?xml version="1.0" encoding="utf-8"?>
<!-- Generator: Adobe Illustrator 25.0.1, SVG Export Plug-In . SVG Version: 6.00 Build 0)  -->
<svg version="1.1" id="Layer_1" xmlns="http://www.w3.org/2000/svg" xmlns:xlink="http://www.w3.org/1999/xlink" x="0px" y="0px"
	 viewBox="0 0 1013.3 462.6" style="enable-background:new 0 0 1013.3 462.6;" xml:space="preserve">
<style type="text/css">
	.st0{fill:#996D4B;}
	.st1{fill:#3FB25A;}
	.st2{fill:#A01717;}
	.st3{fill:#F7746D;}
	.st4{fill:#0B491E;}
	.st5{fill:#FFEFFF;}
	.st6{fill:#FFEF5C;}
</style>
<g>
	<g>
		<path class="st0" d="M297.7,380L165,375.4c-0.6,0-1.2,0.1-1.8,0.2l-74.9,16.6c-1.1,0-2.1,0.2-3.1,0.7l-66.7,14.8
			c-4,0.8-6.5,4.8-5.6,8.7c0.7,3.4,3.7,5.7,7.1,5.7c0.5,0,1.1-0.1,1.6-0.2l66.2-14.7l68.3,22.6l47.7,21.8c0.9,0.5,2,0.7,3,0.7
			c2.7,0,5.4-1.6,6.6-4.4c1.7-3.7,0.1-8-3.6-9.7l-48.1-22c-0.2-0.1-0.4-0.2-0.7-0.3l-45-14.9l49.3-10.9l131.8,4.7
			c4.1,0.1,7.5-3.1,7.6-7.1C304.9,383.5,301.7,380.1,297.7,380z"/>
		<path class="st0" d="M1013.1,185c-1-4-5-6.4-8.9-5.4L900.9,205l-111.5-5.7l-107.5-27.9c-0.6-0.1-1.2-0.3-1.8-0.3h-93.9l68.2-23.8
			c0.6-0.1,1.2-0.3,1.8-0.6l43-15l138.3-20.4l61.2,9.5c0.4,0.1,0.9,0.1,1.4,0.1l65-2.7c4-0.1,7.2-3.6,7-7.6c-0.1-4-3.6-7.2-7.6-7
			l-64.3,2.7l-61.5-9.6c-0.7-0.1-1.5-0.1-2.2,0l-140.1,20.7c-0.4,0-0.9,0.1-1.3,0.3l-15.7,5.5l46.3-48.4L827,25.9
			c3.6-1.8,5.2-6.2,3.4-9.8c-1.8-3.6-6.2-5.2-9.8-3.4L718.1,62.1c-0.8,0.3-1.5,0.9-2.1,1.5l-67.1,70.1l-108.4,37.9
			c-0.1,0-0.2,0.1-0.3,0.1l-133.1,17.1c-1.4-0.3-2.9-0.2-4.2,0.3H287.5c-0.8,0-1.6-0.1-2.3,0.1l-116.8,37.9c-0.1,0-0.3,0-0.4,0.1
			l-40,15.7l61.6-63.3l101.9-67.3c0.4-0.3,0.8-0.6,1.2-1l1-1.1l79.7-25.3l106.5-18c0.6-0.1,1.2-0.3,1.8-0.6l87-40.3
			c3.7-1.7,5.3-6,3.6-9.7s-6-5.3-9.7-3.6l-86.1,39.9L370.4,70.7c-0.4,0-0.7,0.1-1,0.2L315,88.2L362.3,39c2.8-3,2.7-7.6-0.2-10.4
			c-3-2.8-7.6-2.7-10.4,0.2l-69,71.7l-101.8,67.3c-0.4,0.3-0.8,0.6-1.2,1L95,255.9L4.6,291.4c-3.7,1.5-5.6,5.7-4.1,9.5
			c1.1,2.8,3.9,4.6,6.8,4.6c0.9,0,1.8-0.2,2.7-0.6l90.7-35.6c0.7-0.2,1.4-0.4,2-0.8l68.8-27l116.9,11.2l38.2,11.8
			c0.7,0.2,1.4,0.5,2.1,0.5H389c4.1,0,7.3-3.6,7.3-7.6s-3.3-7.5-7.3-7.5h-59.3l-37.9-11.6c-0.4-0.1-0.9-0.3-1.4-0.3l-84.3-7.9
			l82.6-27.1h114.5l47.4,23.6l24.4,32.9v81.9c0,4,3.5,7.3,7.5,7.3s7.5-3.3,7.5-7.3v-61.7l23,31l46.5,75.7c1.3,2.3,3.7,3.5,6.2,3.5
			c1.3,0,2.6-0.4,3.9-1c3.4-2.1,4.5-6.7,2.4-10.1l-46.7-76c-0.2-0.2-0.3-0.3-0.4-0.5l-35.5-47.8c-0.4-1-1.1-2-2-2.7l-8.3-11.1
			L568,284c0.1,0,0.2,0.1,0.3,0.1l109.8,47.6c0.9,0.4,1.9,0.6,2.9,0.6c2.9,0,5.6-1.7,6.7-4.4c1.6-3.7-0.1-8-3.8-9.6L629,294.5
			l58.6-0.8c4,0,7.3-3.3,7.2-7.3c0-4-3.4-7.3-7.4-7.2l-90.8,1.3l-22.4-9.7l-105.1-51.2l-10.4-5.2c-0.1-0.1-0.3-0.1-0.4-0.2
			l-28.2-14.1L543.4,186h135.8L786,213.6l121.4,64.5c0.8,0.4,1.6,0.7,2.4,0.8l70.1,10.5c4,0.6,7.7-2.2,8.3-6.2s-2.2-7.7-6.2-8.3
			l-68.9-10.3l-92.1-49l80.2,4.1c0.2,0,0.3,0,0.4,0c0.6,0,1.2-0.1,1.7-0.2l104.4-25.6C1011.7,192.9,1014.1,188.9,1013.1,185z"/>
		<path class="st0" d="M11.9,129.1c1,0,2-0.2,2.9-0.7l92.7-41.8l160.8-45.7c3.8-1.1,6.1-5.1,5-9c-1.1-3.8-5.1-6.1-9-5L123.8,66.8
			l40.8-55.1c2.4-3.2,1.7-7.8-1.5-10.2c-3.2-2.4-7.8-1.7-10.2,1.5l-52.4,70.8L8.9,115.1c-3.7,1.7-5.4,6-3.7,9.7
			C6.4,127.5,9.1,129.1,11.9,129.1z"/>
	</g>
	<g>
		<g>
			<g>
				<path class="st1" d="M123.3,441.9c-5.7-17.4,5.7-29.8,5.7-29.8s16.5,3.3,22.2,20.7c5.7,17.4-5.7,29.8-5.7,29.8
					S129,459.3,123.3,441.9z"/>
			</g>
			<g>
				<path class="st1" d="M210.4,436c-12.6,4.1-21.6-4.1-21.6-4.1s2.4-11.9,15-16.1c12.6-4.1,21.6,4.1,21.6,4.1S223,431.8,210.4,436z
					"/>
			</g>
			<g>
				<path class="st1" d="M944.5,107.1c-10,8.7-21.5,4.5-21.5,4.5s-2.4-11.9,7.6-20.6s21.5-4.5,21.5-4.5S954.6,98.5,944.5,107.1z"/>
			</g>
			<g>
				<path class="st1" d="M236.8,376.6c-13.8,10.7-28.7,4.5-28.7,4.5s-2.4-15.9,11.5-26.7c13.9-10.7,28.7-4.5,28.7-4.5
					S250.6,365.8,236.8,376.6z"/>
			</g>
			<g>
				<path class="st1" d="M890.4,204.5c-13.8,10.7-28.7,4.5-28.7,4.5s-2.4-15.9,11.5-26.7c13.9-10.7,28.7-4.5,28.7-4.5
					S904.2,193.7,890.4,204.5z"/>
			</g>
			<g>
				<path class="st1" d="M71.3,312.3c-13.7-17.6-5.7-36.5-5.7-36.5s20.2-3,33.9,14.6s5.7,36.5,5.7,36.5S84.9,329.9,71.3,312.3z"/>
			</g>
			<g>
				<path class="st1" d="M970.8,222.7c-18.4-3.8-23.6-20.3-23.6-20.3s11.3-13,29.8-9.2c18.4,3.8,23.6,20.3,23.6,20.3
					S989.2,226.5,970.8,222.7z"/>
			</g>
			<g>
				<path class="st1" d="M980.3,276.3c-15.7,10.3-31.1,2.3-31.1,2.3s-1.2-17.2,14.6-27.5c15.7-10.3,31.1-2.3,31.1-2.3
					S996,266,980.3,276.3z"/>
			</g>
			<g>
				<path class="st1" d="M357.5,119.2c-19.3-9.1-20.7-28.6-20.7-28.6s15.9-11.4,35.2-2.3c19.3,9.1,20.7,28.6,20.7,28.6
					S376.8,128.2,357.5,119.2z"/>
			</g>
			<g>
				<path class="st1" d="M748,142.5c-14.7-6.9-15.7-21.7-15.7-21.7s12.1-8.6,26.7-1.7c14.7,6.9,15.7,21.7,15.7,21.7
					S762.6,149.4,748,142.5z"/>
			</g>
			<g>
				<path class="st1" d="M882.1,132.6c-3.4-13.2,5.6-21.8,5.6-21.8s12,3.2,15.4,16.4s-5.6,21.8-5.6,21.8S885.5,145.7,882.1,132.6z"
					/>
			</g>
			<g>
				<path class="st1" d="M895.3,254.8c-13.2,3.4-21.8-5.6-21.8-5.6s3.2-12,16.4-15.4s21.8,5.6,21.8,5.6S908.5,251.5,895.3,254.8z"/>
			</g>
			<g>
				<path class="st1" d="M712.4,65.3c-0.5,16.2-13.7,23-13.7,23s-12.7-7.7-12.2-23.9s13.7-23,13.7-23S713,49.1,712.4,65.3z"/>
			</g>
			<g>
				<path class="st1" d="M49.6,261.9c-5.5,21.6-25.2,26.9-25.2,26.9S9.5,274.7,15,253.1s25.2-26.9,25.2-26.9S55.1,240.2,49.6,261.9z
					"/>
			</g>
			<g>
				<path class="st1" d="M160.9,182.1c2.1,17.1-10.7,26.4-10.7,26.4s-14.6-6-16.7-23.1c-2.1-17.1,10.7-26.4,10.7-26.4
					S158.8,165,160.9,182.1z"/>
			</g>
			<g>
				<path class="st1" d="M483.5,229.5c-17.2,1.6-26.1-11.4-26.1-11.4s6.4-14.4,23.6-16s26.1,11.4,26.1,11.4S500.7,227.9,483.5,229.5
					z"/>
			</g>
			<g>
				<path class="st1" d="M454.6,296.3c11.6-12.8,27-9.3,27-9.3s5,15-6.5,27.8c-11.6,12.8-27,9.3-27,9.3S443.1,309,454.6,296.3z"/>
			</g>
			<g>
				<path class="st1" d="M823.7,254.9c-0.9-17.2,12.5-25.6,12.5-25.6s14.2,7,15,24.2c0.9,17.2-12.5,25.6-12.5,25.6
					S824.5,272.1,823.7,254.9z"/>
			</g>
			<g>
				<path class="st1" d="M221.1,176.9c-12.9-4.8-14.9-17.3-14.9-17.3s9.6-8.2,22.5-3.4s14.9,17.3,14.9,17.3S234,181.7,221.1,176.9z"
					/>
			</g>
			<g>
				<path class="st1" d="M465.5,83.6c-12.9-4.8-14.9-17.3-14.9-17.3s9.6-8.2,22.5-3.4S488,80.2,488,80.2S478.4,88.4,465.5,83.6z"/>
			</g>
			<g>
				<path class="st1" d="M323.9,217c-10.4-9-7.8-21.4-7.8-21.4s11.9-4.2,22.3,4.8s7.8,21.4,7.8,21.4S334.3,226.1,323.9,217z"/>
			</g>
			<g>
				<path class="st1" d="M785.3,190.3c-9,10.4-21.4,7.8-21.4,7.8s-4.2-11.9,4.8-22.3c9-10.4,21.4-7.8,21.4-7.8
					S794.3,179.9,785.3,190.3z"/>
			</g>
			<g>
				<path class="st1" d="M370.1,244.7c-8.3,11-20.8,9.2-20.8,9.2s-5-11.6,3.3-22.6s20.8-9.2,20.8-9.2S378.5,233.7,370.1,244.7z"/>
			</g>
			<g>
				<path class="st1" d="M287.3,180.4c-6.8,18.4-24.6,21.2-24.6,21.2s-11.7-13.7-4.8-32.1c6.8-18.4,24.6-21.2,24.6-21.2
					S294.1,162,287.3,180.4z"/>
			</g>
			<g>
				<path class="st1" d="M545.7,60.6c-8.2-17.8,2.4-32.4,2.4-32.4s18,1.5,26.1,19.3c8.2,17.8-2.4,32.4-2.4,32.4
					S553.9,78.5,545.7,60.6z"/>
			</g>
			<g>
				<path class="st1" d="M690.4,215.3c-8.2-17.8,2.4-32.4,2.4-32.4s18,1.5,26.1,19.3c8.2,17.8-2.4,32.4-2.4,32.4
					S698.6,233.2,690.4,215.3z"/>
			</g>
			<g>
				<path class="st1" d="M149.9,72.3c18.4,6.8,21.2,24.6,21.2,24.6s-13.7,11.7-32.1,4.8c-18.4-6.8-21.2-24.6-21.2-24.6
					S131.5,65.5,149.9,72.3z"/>
			</g>
			<g>
				<path class="st1" d="M488.6,175.4c-11.1,12-25.7,8.5-25.7,8.5s-4.6-14.3,6.5-26.3s25.7-8.5,25.7-8.5S499.7,163.4,488.6,175.4z"
					/>
			</g>
			<g>
				<path class="st1" d="M310.6,259c10.5,16.6,1.9,32.4,1.9,32.4s-18,0.9-28.5-15.7s-1.9-32.4-1.9-32.4S300.1,242.4,310.6,259z"/>
			</g>
		</g>
		<g>
			<g>
				<g>
					<g>
						<path class="st2" d="M689.4,160.2L689.4,160.2c-6.4,1.5-20.9-9.6-23.3-19.7c-1.3-5.5,1.2-10.3,4.7-13.8c-4,0.9-7.7,3-9.8,5.1
							c-4.6,4.6-9.1,16.7-1.8,24C666.6,163.2,684.8,164.8,689.4,160.2z"/>
					</g>
					<g>
						<path class="st2" d="M689.4,160.2L689.4,160.2L689.4,160.2z"/>
					</g>
					<g>
						<path class="st3" d="M689.4,160.2L689.4,160.2c4.6-4.6,3-22.8-4.3-30.2c-0.2-0.2-0.3-0.3-0.5-0.5c-3.9-3.5-9.1-3.9-13.7-2.9
							c-3.5,3.5-6,8.4-4.7,13.8C668.5,150.6,683.1,161.7,689.4,160.2z"/>
					</g>
				</g>
				<g>
					<path class="st1" d="M664,135.4c1.3-1.3,1.7-3,1.2-4.2c0.9-0.9,1.4-2,1.4-3c-2.3,1-4.3,2.4-5.6,3.7c-1.5,1.5-2.9,3.6-4,6.2
						c0.9-0.1,1.9-0.6,2.7-1.4C661,137.1,662.7,136.6,664,135.4z"/>
				</g>
			</g>
			<g>
				<g>
					<g>
						<path class="st2" d="M536.9,210.2L536.9,210.2c-3.1-5.1,2.3-20.9,10.4-25.8c4.4-2.7,9.3-1.9,13.3,0.1c-2-3.2-4.8-5.8-7.2-7
							c-5.3-2.7-17.1-3.1-21.4,5.3C527.8,191.3,531.5,207.5,536.9,210.2z"/>
					</g>
					<g>
						<path class="st2" d="M536.9,210.2L536.9,210.2L536.9,210.2z"/>
					</g>
					<g>
						<path class="st3" d="M536.9,210.2L536.9,210.2c5.3,2.7,20.6-3.9,24.9-12.3c0.1-0.2,0.2-0.4,0.3-0.6c1.9-4.4,0.8-9-1.4-12.7
							c-4-2.1-8.9-2.8-13.3-0.1C539.2,189.3,533.8,205.1,536.9,210.2z"/>
					</g>
				</g>
				<g>
					<path class="st1" d="M551.2,181.1c1.5,0.7,3.1,0.7,4-0.1c1,0.5,2.1,0.6,3,0.4c-1.5-1.7-3.3-3-4.8-3.8c-1.7-0.8-4-1.5-6.5-1.7
						c0.4,0.8,1.1,1.5,2,1.9C548.8,179,549.7,180.3,551.2,181.1z"/>
				</g>
			</g>
			<g>
				<g>
					<g>
						<path class="st2" d="M449,272.6L449,272.6c-0.5-5.9,11.3-17.7,20.8-18.5c5.1-0.4,9.2,2.4,11.9,6c-0.3-3.8-1.7-7.3-3.4-9.5
							c-3.6-4.8-13.9-10.4-21.5-4.7C449.3,251.6,445.4,267.8,449,272.6z"/>
					</g>
					<g>
						<path class="st2" d="M449,272.6L449,272.6L449,272.6z"/>
					</g>
					<g>
						<path class="st3" d="M449,272.6L449,272.6c3.6,4.8,20.2,5.7,27.8,0c0.2-0.1,0.3-0.3,0.5-0.4c3.7-3.1,4.7-7.7,4.4-12
							c-2.7-3.6-6.8-6.5-11.9-6C460.3,254.9,448.5,266.6,449,272.6z"/>
					</g>
				</g>
				<g>
					<path class="st1" d="M474.7,252.8c1,1.3,2.5,2,3.6,1.7c0.7,0.9,1.6,1.5,2.5,1.7c-0.6-2.2-1.6-4.2-2.6-5.6
						c-1.1-1.5-2.9-3.1-5.1-4.4c0,0.9,0.3,1.8,0.9,2.6C473.5,249.9,473.7,251.5,474.7,252.8z"/>
				</g>
			</g>
			<g>
				<g>
					<g>
						<path class="st2" d="M509.1,339.7L509.1,339.7c-4-4.4-1.8-20.9,5.2-27.3c3.8-3.5,8.8-3.7,13.1-2.5c-2.6-2.8-5.8-4.8-8.5-5.5
							c-5.7-1.6-17.4,0.2-19.9,9.3C496.5,322.8,503.3,338.1,509.1,339.7z"/>
					</g>
					<g>
						<path class="st2" d="M509.1,339.7L509.1,339.7L509.1,339.7z"/>
					</g>
					<g>
						<path class="st3" d="M509.1,339.7L509.1,339.7c5.8,1.6,19.5-7.8,22-16.9c0.1-0.2,0.1-0.4,0.2-0.6c1.1-4.7-0.9-9-3.9-12.2
							c-4.4-1.2-9.3-1-13.1,2.5C507.3,318.7,505,335.3,509.1,339.7z"/>
					</g>
				</g>
				<g>
					<path class="st1" d="M517.4,308.3c1.6,0.4,3.1,0,3.9-0.9c1.1,0.3,2.2,0.2,3.1-0.2c-1.8-1.4-3.8-2.3-5.5-2.8
						c-1.8-0.5-4.2-0.7-6.7-0.4c0.5,0.7,1.4,1.2,2.3,1.5C514.7,306.7,515.9,307.9,517.4,308.3z"/>
				</g>
			</g>
			<g>
				<g>
					<g>
						<path class="st2" d="M355.3,291.8L355.3,291.8c-6,0-16.7-12.7-16.7-22.2c0-5.1,3.1-9,7-11.4c-3.8,0-7.5,1.1-9.8,2.6
							c-5.1,3.2-11.5,13-6.4,21C334.4,289.8,350.3,294.9,355.3,291.8z"/>
					</g>
					<g>
						<path class="st2" d="M355.3,291.8L355.3,291.8L355.3,291.8z"/>
					</g>
					<g>
						<path class="st3" d="M355.3,291.8L355.3,291.8c5.1-3.2,7.3-19.7,2.2-27.7c-0.1-0.2-0.2-0.4-0.4-0.5c-2.8-3.9-7.3-5.3-11.6-5.3
							c-3.8,2.4-7,6.2-7,11.4C338.6,279,349.4,291.8,355.3,291.8z"/>
					</g>
				</g>
				<g>
					<path class="st1" d="M337.7,264.5c1.4-0.9,2.1-2.3,2-3.5c0.9-0.6,1.6-1.5,1.9-2.4c-2.3,0.5-4.3,1.2-5.7,2.2
						c-1.6,1-3.3,2.7-4.8,4.7c0.9,0.1,1.8-0.2,2.7-0.7C334.7,265.5,336.3,265.4,337.7,264.5z"/>
				</g>
			</g>
			<g>
				<g>
					<g>
						<path class="st2" d="M276.6,419L276.6,419c-6,0-16.7-12.7-16.7-22.2c0-5.1,3.1-9,7-11.4c-3.8,0-7.5,1.1-9.8,2.6
							c-5.1,3.2-11.5,13-6.4,21C255.7,417,271.5,422.2,276.6,419z"/>
					</g>
					<g>
						<path class="st2" d="M276.6,419L276.6,419L276.6,419z"/>
					</g>
					<g>
						<path class="st3" d="M276.6,419L276.6,419c5.1-3.2,7.3-19.7,2.2-27.7c-0.1-0.2-0.2-0.4-0.4-0.5c-2.8-3.9-7.3-5.3-11.6-5.3
							c-3.8,2.4-7,6.2-7,11.4C259.9,406.3,270.6,419,276.6,419z"/>
					</g>
				</g>
				<g>
					<path class="st1" d="M259,391.8c1.4-0.9,2.1-2.3,2-3.5c0.9-0.6,1.6-1.5,1.9-2.4c-2.3,0.5-4.3,1.2-5.7,2.2
						c-1.6,1-3.3,2.7-4.8,4.7c0.9,0.1,1.8-0.2,2.7-0.7C256,392.7,257.6,392.6,259,391.8z"/>
				</g>
			</g>
			<g>
				<g>
					<g>
						<path class="st2" d="M93,228.2L93,228.2c5,4.2,3,20.8-3.7,27.5c-3.6,3.7-8.5,4.1-12.9,3.1c2.7,2.7,6.1,4.5,8.8,5.1
							c5.8,1.3,17.2-1.1,19.3-10.3C106.5,244.4,99,229.5,93,228.2z"/>
					</g>
					<g>
						<path class="st2" d="M93.3,228.2L93.3,228.2L93.3,228.2z"/>
					</g>
					<g>
						<path class="st3" d="M93.3,228.2L93.3,228.2c-5.8-1.3-19.1,8.8-21.2,18c0,0.2-0.1,0.4-0.1,0.6c-0.8,4.8,1.4,8.9,4.5,12
							c4.4,1,9.4,0.6,13-3.1C96.1,249,97.6,232.4,93.3,228.2z"/>
					</g>
				</g>
				<g>
					<path class="st1" d="M86.5,259.9c-1.6-0.4-3.1,0.1-3.9,1.1c-1.1-0.2-2.2-0.1-3,0.4c1.9,1.3,3.9,2.2,5.6,2.5
						c1.8,0.4,4.2,0.5,6.7,0c-0.6-0.7-1.4-1.2-2.4-1.4C89.3,261.4,88.1,260.3,86.5,259.9z"/>
				</g>
			</g>
			<g>
				<g>
					<g>
						<path class="st2" d="M67.7,61.6L67.7,61.6c4.6,4.2,2.8,20.8-3.9,27.5c-3.6,3.7-8.6,4.1-13,3.1c2.7,2.7,6.1,4.5,8.7,5.1
							C65.4,98.6,76.9,96.2,79,87S73.2,62.9,67.7,61.6z"/>
					</g>
					<g>
						<path class="st2" d="M67.7,61.6L67.7,61.6L67.7,61.6z"/>
					</g>
					<g>
						<path class="st3" d="M67.7,61.6L67.7,61.6c-5.8-1.3-19.1,8.8-21.2,18c0,0.2-0.1,0.4-0.1,0.6c-0.8,4.8,1.4,8.9,4.5,12
							c4.4,1,9.4,0.6,13-3.1C70.5,82.4,71.9,65.8,67.7,61.6z"/>
					</g>
				</g>
				<g>
					<path class="st1" d="M60.9,93.3c-1.6-0.4-3.1,0.1-3.9,1.1c-1.1-0.2-2.2-0.1-3,0.4c1.9,1.3,3.9,2.2,5.6,2.5
						c1.8,0.4,4.2,0.5,6.7,0c-0.6-0.7-1.4-1.2-2.4-1.4C63.7,94.8,62.5,93.7,60.9,93.3z"/>
				</g>
			</g>
			<g>
				<g>
					<g>
						<path class="st2" d="M405,36L405,36c4,4.2,2.6,20.8-4.1,27.5c-3.6,3.7-8.7,4.1-13.1,3.1c2.7,2.7,6,4.5,8.7,5.1
							c5.8,1.3,17.5-1.1,19.6-10.3C418.2,52.1,410,37.3,405,36z"/>
					</g>
					<g>
						<path class="st2" d="M404.6,36L404.6,36L404.6,36z"/>
					</g>
					<g>
						<path class="st3" d="M405.5,35.9L405.5,35.9c-5.9-1.3-19.4,8.9-21.5,18.3c0,0.2-0.1,0.4-0.1,0.6c-0.8,4.8,1.4,9.1,4.5,12.2
							c4.5,1,9.5,0.6,13.2-3.2C408.3,57.1,409.8,40.2,405.5,35.9z"/>
					</g>
				</g>
				<g>
					<path class="st1" d="M397.7,67.7c-1.6-0.4-3.1,0.1-3.9,1.1c-1.1-0.2-2.2-0.1-3,0.4c1.9,1.3,3.9,2.2,5.6,2.5
						c1.8,0.4,4.2,0.5,6.7,0c-0.6-0.7-1.4-1.2-2.4-1.4C400.5,69.1,399.4,68.1,397.7,67.7z"/>
				</g>
			</g>
			<g>
				<g>
					<g>
						<path class="st2" d="M844.5,78.9L844.5,78.9c2.6,3.9-1.6,15.7-7.6,19.4c-3.3,2-7,1.5-10,0c1.5,2.4,3.6,4.3,5.5,5.2
							c4,2,12.8,2.2,16-4.1C851.5,93,848.3,80.8,844.5,78.9z"/>
					</g>
					<g>
						<path class="st2" d="M844.5,78.9L844.5,78.9L844.5,78.9z"/>
					</g>
					<g>
						<path class="st3" d="M844.5,78.9L844.5,78.9c-4-2-15.4,3.1-18.6,9.4c-0.1,0.1-0.1,0.3-0.2,0.4c-1.4,3.3-0.6,6.7,1.2,9.5
							c3,1.5,6.7,2,10,0C843,94.6,846.9,82.7,844.5,78.9z"/>
					</g>
				</g>
				<g>
					<path class="st4" d="M834,100.9c-1.1-0.5-2.3-0.5-3,0.1c-0.8-0.4-1.6-0.5-2.3-0.3c1.2,1.3,2.5,2.2,3.6,2.8
						c1.3,0.6,3,1.1,4.9,1.2c-0.3-0.6-0.8-1.1-1.5-1.4C835.8,102.4,835.2,101.4,834,100.9z"/>
				</g>
			</g>
		</g>
		<g>
			<g>
				<g>
					<path class="st2" d="M755,161.3L755,161.3c7,1.9,11.6,17.7,8.4,26.6c-1.7,4.8-5.9,7.3-10.3,8.3c3.6,1.3,7.5,1.5,10.1,0.9
						c5.8-1.3,15-8.3,13-17.6C774.2,170.3,761,160.2,755,161.3z"/>
				</g>
				<g>
					<path class="st2" d="M755.5,161.3L755.5,161.3L755.5,161.3z"/>
				</g>
				<g>
					<path class="st3" d="M755.5,161.3L755.5,161.3c-5.8,1.3-13.6,16-11.6,25.3c0,0.2,0.1,0.4,0.2,0.6c1.3,4.7,5,7.5,9.1,9
						c4.4-0.9,8.7-3.5,10.5-8.3C766.8,179,761.1,163.4,755.5,161.3z"/>
				</g>
			</g>
			<g>
				<path class="st1" d="M762.7,193c-1.6,0.3-2.8,1.4-3,2.6c-1.1,0.2-2,0.8-2.6,1.6c2.3,0.3,4.4,0.3,6.1-0.1c1.8-0.4,4-1.4,6.1-2.8
					c-0.8-0.4-1.8-0.5-2.7-0.2C765.8,193.1,764.3,192.6,762.7,193z"/>
			</g>
		</g>
		<g>
			<g>
				<path class="st3" d="M621.7,261.8c-2.5-7.8-9.8-12.8-17.6-12.8c-2.4-7.4-9.4-12.8-17.6-12.8c-8.2,0-15.2,5.4-17.6,12.8
					c-7.8,0-15.1,5-17.6,12.8c-2.5,7.8,0.4,16.1,6.7,20.7c-2.4,7.4,0.1,15.9,6.7,20.7c6.7,4.8,15.5,4.6,21.8,0
					c6.3,4.6,15.1,4.8,21.8,0s9.1-13.3,6.7-20.7C621.3,277.9,624.2,269.6,621.7,261.8z"/>
				<path class="st5" d="M595.6,270.2c-0.6-2-2.1-3.5-3.9-4.2c-1.3-1.5-3.1-2.4-5.2-2.4c-2.1,0-4,0.9-5.2,2.4
					c-1.8,0.8-3.3,2.2-3.9,4.2c-0.6,2-0.3,4.1,0.7,5.7c0.2,1.9,1.1,3.8,2.8,5s3.8,1.6,5.7,1.1c1.9,0.4,4,0.1,5.7-1.1s2.7-3.1,2.8-5
					C596,274.3,596.3,272.2,595.6,270.2z"/>
				<polygon class="st6" points="591.6,272.3 591.2,270.9 588,271.9 588,268 586,268 586,272.3 581.8,270.9 581.3,272.3 
					585.3,273.6 582.8,277 584,277.8 586.5,274.5 588.9,277.8 590.1,277 587.7,273.6 				"/>
			</g>
			<g>
				<path class="st3" d="M584.5,380.8c2.4-4.7,1.6-10.6-2.3-14.5c-3.9-3.9-9.8-4.7-14.5-2.3c-3.7-3.7-9.5-4.8-14.5-2.3
					c-4.9,2.5-7.5,7.9-6.6,13.1c-4.7,2.4-7.5,7.6-6.7,13c0.9,5.5,5.2,9.5,10.4,10.4c0.8,5.2,4.9,9.5,10.4,10.4s10.7-2,13-6.7
					c5.2,0.8,10.5-1.7,13.1-6.6C589.3,390.3,588.2,384.5,584.5,380.8z"/>
				<path class="st5" d="M570.5,383c0.1-1.3-0.3-2.6-1.3-3.6s-2.3-1.4-3.6-1.3c-1.2-0.5-2.6-0.5-3.9,0.1c-1.3,0.6-2.1,1.8-2.4,3.1
					c-0.8,1-1.3,2.3-1.1,3.7c0.2,1.4,1.1,2.5,2.2,3.2c0.7,1.1,1.8,1.9,3.2,2.2c1.4,0.2,2.7-0.2,3.7-1.1c1.3-0.3,2.4-1.1,3.1-2.4
					C571,385.6,571,384.2,570.5,383z"/>
				<polygon class="st6" points="567.9,385.1 565.2,383.7 567.2,381.7 566.6,381 564.6,383 563.4,380.6 562.5,381.1 563.8,383.6 
					561,384 561.2,385 564,384.6 563.5,387.3 564.5,387.5 565,384.7 567.5,386 				"/>
			</g>
			<g>
				<path class="st3" d="M641.5,134.2c-1.3-4-5.1-6.6-9.1-6.6c-1.2-3.8-4.8-6.6-9.1-6.6c-4.2,0-7.8,2.8-9.1,6.6
					c-4,0-7.8,2.6-9.1,6.6s0.2,8.3,3.5,10.7c-1.2,3.8,0,8.2,3.5,10.7c3.4,2.5,8,2.4,11.2,0c3.3,2.4,7.8,2.5,11.2,0s4.7-6.9,3.5-10.7
					C641.3,142.5,642.8,138.2,641.5,134.2z"/>
				<path class="st5" d="M628,138.6c-0.3-1-1.1-1.8-2-2.2c-0.7-0.8-1.6-1.3-2.7-1.3c-1.1,0-2,0.5-2.7,1.3c-0.9,0.4-1.7,1.1-2,2.2
					c-0.3,1-0.2,2.1,0.4,3c0.1,1,0.6,2,1.4,2.6c0.9,0.6,1.9,0.8,2.9,0.6c1,0.2,2,0.1,2.9-0.6c0.9-0.6,1.4-1.6,1.4-2.6
					C628.2,140.7,628.4,139.6,628,138.6z"/>
				<polygon class="st6" points="625.9,139.5 625.7,138.8 623.7,139.5 623.7,137 622.9,137 622.9,139.6 620.9,138.9 620.7,139.6 
					622.7,140.3 621.4,142 622.1,142.5 623.3,140.8 624.6,142.5 625.2,142 623.8,140.2 				"/>
			</g>
			<g>
				<path class="st3" d="M817.1,209c-2.3-5-7.6-7.8-12.8-7.2c-2.2-4.8-7.3-7.8-12.8-7.2c-5.5,0.7-9.7,4.8-10.8,9.9
					c-5.2,0.6-9.7,4.5-10.8,9.9s1.5,10.7,6.1,13.3c-1,5.2,1.3,10.6,6.1,13.3s10.7,1.8,14.5-1.7c4.6,2.6,10.5,2,14.5-1.7
					c4.1-3.8,5.1-9.6,2.9-14.4C818.1,219.8,819.5,214,817.1,209z"/>
				<path class="st5" d="M800.4,216.7c-0.6-1.3-1.7-2.1-3-2.5c-1-0.9-2.3-1.4-3.7-1.2s-2.6,1-3.3,2c-1.1,0.6-2,1.7-2.3,3.1
					c-0.3,1.4,0.1,2.7,0.9,3.8c0.3,1.3,1,2.5,2.3,3.1c1.2,0.7,2.6,0.7,3.9,0.3c1.3,0.2,2.7-0.2,3.7-1.2s1.5-2.3,1.5-3.6
					C800.9,219.4,801,218,800.4,216.7z"/>
				<polygon class="st6" points="797.8,218.2 797.4,217.4 794.9,218.6 794.6,215.9 793.6,216 793.9,218.8 791.2,218.3 791,219.2 
					793.7,219.8 792.4,222.2 793.2,222.7 794.6,220.3 796.5,222.3 797.2,221.7 795.2,219.4 				"/>
			</g>
			<g>
				<g>
					<path class="st3" d="M298.4,81.3c0.4-7.5-3.9-14.7-11.3-17.6s-15.5-0.5-20.3,5.3c-7-2.7-15.2-0.8-20.3,5.3
						c-5,6.1-5.3,14.6-1.2,20.9c-4.8,5.8-5.5,14.2-1.2,20.9c4.3,6.7,12.3,9.5,19.5,7.6c4.1,6.3,11.9,9.6,19.5,7.6
						c7.7-2,12.8-8.7,13.3-16.2c7.3-1.9,12.8-8.3,13.3-16.2C310.2,91,305.4,84,298.4,81.3z"/>
				</g>
				<g>
					<path class="st5" d="M281.4,92.2c-0.6-1.8-2-3.3-3.9-4s-3.9-0.5-5.5,0.3c-1.9,0-3.7,0.9-5,2.4c-1.3,1.6-1.7,3.5-1.4,5.4
						c-0.5,1.8-0.3,3.8,0.8,5.5c1.1,1.7,2.8,2.7,4.7,3c1.5,1.1,3.5,1.5,5.5,1s3.5-1.8,4.3-3.5c1.5-1.1,2.5-2.9,2.6-4.9
						C283.5,95.4,282.7,93.5,281.4,92.2z"/>
				</g>
				<g>
					<polygon class="st6" points="279.2,96.4 275.2,96.2 276.8,92.1 275.1,91.4 273.5,95.4 270.7,93.1 269.8,94.2 272.9,96.8 
						269.6,98.9 270.3,100.1 273.7,98 274.7,101.9 276.1,101.5 275.1,97.6 279.1,97.8 					"/>
				</g>
			</g>
			<g>
				<g>
					<path class="st3" d="M214.7,209.2c-3.1-9.7-12.1-15.8-21.8-15.8c-3-9.2-11.6-15.8-21.8-15.8s-18.8,6.6-21.8,15.8
						c-9.6,0-18.6,6.1-21.8,15.8c-3.1,9.7,0.5,19.9,8.3,25.6c-3,9.2,0.1,19.6,8.3,25.6c8.2,6,19.1,5.7,26.9,0c7.8,5.7,18.7,6,26.9,0
						s11.3-16.4,8.3-25.6C214.2,229.1,217.8,218.9,214.7,209.2z"/>
				</g>
				<g>
					<path class="st5" d="M182.5,219.7c-0.8-2.5-2.6-4.3-4.8-5.2c-1.6-1.8-3.9-3-6.5-3s-4.9,1.2-6.5,3c-2.2,0.9-4,2.8-4.8,5.2
						c-0.8,2.5-0.4,5,0.8,7.1c0.2,2.4,1.4,4.7,3.5,6.2s4.7,1.9,7,1.4c2.3,0.6,4.9,0.1,7-1.4s3.3-3.8,3.5-6.2
						C182.9,224.7,183.3,222.1,182.5,219.7z"/>
				</g>
				<g>
					<polygon class="st6" points="177.5,222.2 177,220.5 172,222.1 172,217 170,217 170,222 165.3,220.5 164.8,222.2 169.7,223.8 
						166.6,228 168.1,229.1 171.2,224.9 174.2,229.1 175.7,228 172.6,223.8 					"/>
				</g>
			</g>
			<g>
				<g>
					<path class="st3" d="M123.1,378.1c3.8-7.4,2.6-16.7-3.6-22.9c-6.2-6.2-15.5-7.4-22.9-3.6c-5.9-5.9-15.1-7.6-22.9-3.6
						s-11.8,12.4-10.5,20.6c-7.4,3.8-11.9,12-10.5,20.6s8.2,15.1,16.4,16.4c1.3,8.2,7.7,15,16.4,16.4c8.6,1.4,16.8-3.1,20.6-10.5
						c8.2,1.3,16.6-2.7,20.6-10.5C130.7,393.1,129,384,123.1,378.1z"/>
				</g>
				<g>
					<path class="st5" d="M101,381.6c0.2-2.1-0.5-4.2-2.1-5.8c-1.6-1.6-3.7-2.3-5.8-2.1c-1.9-0.8-4.1-0.8-6.1,0.2s-3.3,2.8-3.8,4.8
						c-1.3,1.6-2,3.7-1.7,5.9c0.3,2.2,1.6,4,3.4,5.1c1.1,1.8,2.9,3.1,5.1,3.4s4.3-0.3,5.9-1.7c2-0.5,3.8-1.8,4.8-3.8
						C101.8,385.7,101.8,383.5,101,381.6z"/>
				</g>
				<g>
					<polygon class="st6" points="96.9,384.9 93,382.9 96.1,379.7 95,378.6 91.9,381.7 89.8,377.8 88.4,378.5 90.5,382.5 
						86.1,383.2 86.3,384.7 90.7,384 90,388.4 91.6,388.6 92.3,384.3 96.2,386.3 					"/>
				</g>
			</g>
			<g>
				<g>
					<path class="st3" d="M429.6,173.4c-2.2-6.8-8.5-11.1-15.2-11.1c-2.1-6.4-8.1-11.1-15.2-11.1s-13.1,4.6-15.2,11.1
						c-6.8,0-13,4.3-15.2,11.1s0.4,13.9,5.8,17.9c-2.1,6.4,0.1,13.7,5.8,17.9c5.8,4.2,13.4,4,18.8,0c5.5,4,13.1,4.2,18.8,0
						c5.8-4.2,7.9-11.5,5.8-17.9C429.2,187.4,431.8,180.2,429.6,173.4z"/>
				</g>
				<g>
					<path class="st5" d="M407,180.8c-0.6-1.7-1.8-3-3.4-3.7c-1.1-1.3-2.7-2.1-4.5-2.1s-3.4,0.8-4.5,2.1c-1.6,0.6-2.8,1.9-3.4,3.7
						c-0.6,1.7-0.3,3.5,0.6,5c0.1,1.7,1,3.3,2.4,4.4c1.5,1.1,3.3,1.4,4.9,1c1.6,0.4,3.4,0.1,4.9-1s2.3-2.7,2.4-4.4
						C407.3,184.3,407.6,182.5,407,180.8z"/>
				</g>
				<polygon class="st6" points="403.6,182.6 403.2,181.3 403.1,181.4 403.1,181.3 399.7,182.5 399.7,179 398.4,179 398.4,182.4 
					395,181.3 394.6,182.6 398.1,183.7 395.9,186.6 397,187.3 399.1,184.4 401.2,187.3 402.2,186.6 400.1,183.7 				"/>
			</g>
			<g>
				<path class="st3" d="M679,171.7c0.5-7-3.5-13.8-10.4-16.5c-6.8-2.8-14.4-0.6-18.9,4.8c-6.5-2.6-14.2-0.9-18.9,4.7
					c-4.7,5.7-5,13.5-1.3,19.5c-4.5,5.4-5.3,13.2-1.3,19.5c3.9,6.3,11.3,9,18.1,7.3c3.7,5.9,10.9,9.1,18.1,7.3c7.2-1.8,12-8,12.5-15
					c6.8-1.7,12-7.6,12.5-15C689.9,180.9,685.5,174.3,679,171.7z"/>
				<path class="st5" d="M663.1,181.7c-0.6-1.7-1.8-3.1-3.6-3.8c-1.7-0.7-3.6-0.5-5.2,0.3c-1.7,0-3.5,0.8-4.7,2.2s-1.6,3.3-1.4,5
					c-0.5,1.7-0.3,3.5,0.7,5.1s2.6,2.6,4.3,2.8c1.4,1,3.3,1.4,5.1,1c1.8-0.5,3.3-1.7,4-3.2c1.4-1,2.4-2.7,2.5-4.5
					C665,184.7,664.3,182.9,663.1,181.7z"/>
				<polygon class="st6" points="661,185.6 657.9,185.4 659.3,182 657.6,181.3 656.1,184.9 653.1,182.5 652.3,183.5 655.1,185.9 
					652,187.9 652.7,189 655.9,187 656.8,190.6 658.1,190.3 657.1,186.7 660.9,186.9 				"/>
			</g>
			<g>
				<path class="st3" d="M839.1,102.2c-1.7-4.8-6.4-7.7-11.2-7.5c-1.7-4.5-6.1-7.7-11.2-7.5c-5.1,0.2-9.3,3.7-10.6,8.3
					c-4.8,0.2-9.2,3.4-10.6,8.3c-1.4,4.9,0.6,10,4.6,12.7c-1.3,4.7,0.4,9.8,4.6,12.7c4.2,2.8,9.7,2.5,13.5-0.5
					c4,2.7,9.5,2.7,13.5-0.5c4-3.1,5.4-8.4,3.7-13C839.2,112.2,840.8,107,839.1,102.2z"/>
				<path class="st5" d="M823.1,108c-0.4-1.2-1.4-2.1-2.5-2.5c-0.8-0.9-2-1.4-3.3-1.4s-2.4,0.7-3.2,1.6c-1.1,0.5-2,1.4-2.3,2.7
					c-0.4,1.3-0.1,2.5,0.6,3.5c0.1,1.2,0.8,2.3,1.8,3.1c1.1,0.7,2.4,0.9,3.5,0.6c1.2,0.2,2.5,0,3.5-0.8s1.6-2,1.6-3.2
					C823.4,110.5,823.6,109.3,823.1,108z"/>
				<polygon class="st6" points="820.6,109.2 820.4,108.4 818,109.3 817.9,106.9 817,106.9 817,109.5 814.6,108.8 814.3,109.6 
					816.8,110.4 815.4,112.5 816.1,113 817.6,110.9 819.1,112.9 819.9,112.3 818.1,110.1 				"/>
			</g>
		</g>
	</g>
</g>
</svg>
