<?xml version="1.0" encoding="utf-8"?>
<!-- Generator: Adobe Illustrator 25.0.1, SVG Export Plug-In . SVG Version: 6.00 Build 0)  -->
<svg version="1.1" id="Layer_1" xmlns="http://www.w3.org/2000/svg" xmlns:xlink="http://www.w3.org/1999/xlink" x="0px" y="0px"
	 viewBox="0 0 100 188.9" style="enable-background:new 0 0 100 188.9;" xml:space="preserve">
<style type="text/css">
	.st0{fill:#F7746D;}
	.st1{fill:#996D4B;}
</style>
<g>
	<g>
		<g>
			<path class="st0" d="M-1152.5,499.2c0,46.4-37.6,84-84,84c-46.4,0-84-37.6-84-84c0-46.4,37.6-84,84-84
				C-1190.1,415.1-1152.5,452.7-1152.5,499.2z"/>
		</g>
		<g>
			<path class="st0" d="M-1219.2,629.5c0-29.7,24.1-53.8,53.8-53.8c29.7,0,53.8,24.1,53.8,53.8c0,29.7-24.1,53.8-53.8,53.8
				C-1195.1,683.3-1219.2,659.2-1219.2,629.5z"/>
		</g>
		<g>
			<path class="st0" d="M-1385,676.2c0-35.5,28.7-64.2,64.2-64.2c35.5,0,64.2,28.7,64.2,64.2c0,35.5-28.7,64.2-64.2,64.2
				C-1356.3,740.4-1385,711.6-1385,676.2z"/>
		</g>
	</g>
	<path class="st1" d="M-1144.5,639.1c-2.1-2.1-5.4-2.1-7.5,0l-8.1,8.1l-0.1-35.6c0-2.9-2.4-5.3-5.3-5.3c0,0,0,0,0,0
		c-2.9,0-5.3,2.4-5.3,5.3l0.1,35.1l-7.7-7.7c-2.1-2.1-5.4-2-7.5,0c-2.1,2.1-2.1,5.4,0,7.5l15.3,15.3l0.1,28.5h-60.6V553.2l33.9-33.9
		c2.1-2.1,2.1-5.4,0-7.5c-2.1-2.1-5.4-2.1-7.4,0l-26.4,26.4v-59.6c0-2.9-2.6-5.3-5.5-5.3c-2.9,0-5.5,2.4-5.5,5.3v59.6l-26.2-26.4
		c-2.1-2.1-5.3-2.1-7.3,0c-2.1,2.1-2.2,5.4-0.2,7.5l33.7,33.9v210.2h-73v-41.4l21.8-22c2.1-2.1,2-5.4-0.1-7.5
		c-2.1-2.1-5.3-2.1-7.3,0L-1315,707v-43.8c0-2.9-2.6-5.3-5.5-5.3c-2.9,0-5.5,2.4-5.5,5.3V707l-14.5-14.5c-2.1-2.1-5.4-2.1-7.4,0
		c-2.1,2.1-2.1,5.4,0,7.5l22,22v46.8c0,2.9,2.4,5.7,5.3,5.7h78.7v154.5c0,2.9,2.6,5.3,5.5,5.3c2.9,0,5.5-2.4,5.5-5.3V700.4h65.9
		c1.4,0,2.7-0.3,3.7-1.3c1-1,1.5-2.2,1.5-3.6l-0.1-33.4l15.5-15.5C-1142.4,644.5-1142.4,641.1-1144.5,639.1z"/>
</g>
<g>
	<g>
		<g>
			<path class="st0" d="M85.1,30.6c0,16.9-13.7,30.6-30.6,30.6c-16.9,0-30.6-13.7-30.6-30.6C23.9,13.7,37.6,0,54.5,0
				C71.4,0,85.1,13.7,85.1,30.6z"/>
		</g>
		<g>
			<path class="st0" d="M60.8,78c0-10.8,8.8-19.6,19.6-19.6c10.8,0,19.6,8.8,19.6,19.6c0,10.8-8.8,19.6-19.6,19.6
				C69.6,97.6,60.8,88.9,60.8,78z"/>
		</g>
		<g>
			<path class="st0" d="M0.5,95c0-12.9,10.5-23.4,23.4-23.4c12.9,0,23.4,10.5,23.4,23.4c0,12.9-10.5,23.4-23.4,23.4
				C10.9,118.4,0.5,107.9,0.5,95z"/>
		</g>
	</g>
	<path class="st1" d="M88,81.5c-0.7-0.7-2-0.7-2.7,0l-3,3l0-12.9c0-1.1-0.9-1.9-1.9-1.9c0,0,0,0,0,0c-1.1,0-1.9,0.9-1.9,1.9l0,12.8
		l-2.8-2.8c-0.7-0.7-2-0.7-2.7,0c-0.7,0.7-0.7,2,0,2.7l5.6,5.6l0,10.4H56.5V50.3l12.3-12.3c0.7-0.7,0.7-2,0-2.7
		c-0.7-0.7-2-0.7-2.7,0l-9.6,9.6V23.2c0-1.1-0.9-1.9-2-1.9c-1.1,0-2,0.9-2,1.9v21.7L43,35.2c-0.7-0.7-1.9-0.7-2.7,0
		c-0.7,0.7-0.8,2-0.1,2.7l12.3,12.3v76.5H25.9v-15.1l7.9-8c0.7-0.7,0.7-2,0-2.7c-0.7-0.7-1.9-0.7-2.7,0l-5.2,5.3V90.3
		c0-1.1-0.9-1.9-2-1.9c-1.1,0-2,0.9-2,1.9v15.9l-5.3-5.3c-0.7-0.7-2-0.7-2.7,0c-0.8,0.8-0.8,2,0,2.7l8,8v17c0,1.1,0.9,2.1,1.9,2.1
		h28.6V187c0,1.1,0.9,1.9,2,1.9c1.1,0,2-0.9,2-1.9v-83.2h24c0.5,0,1-0.1,1.4-0.5c0.4-0.4,0.6-0.8,0.6-1.3l0-12.2l5.7-5.6
		C88.8,83.5,88.8,82.3,88,81.5z"/>
</g>
</svg>
