<?xml version="1.0" encoding="utf-8"?>
<!-- Generator: Adobe Illustrator 25.0.1, SVG Export Plug-In . SVG Version: 6.00 Build 0)  -->
<svg version="1.1" id="Layer_1" xmlns="http://www.w3.org/2000/svg" xmlns:xlink="http://www.w3.org/1999/xlink" x="0px" y="0px"
	 viewBox="0 0 870.8 364" style="enable-background:new 0 0 870.8 364;" xml:space="preserve">
<style type="text/css">
	.st0 {fill:#996D4B;}
	.st1 {fill:#3FB25A;}
	.st2 {fill:#F7746D;}
	.st3 {fill:#FFEFFF;}
	.st4 {fill:#FFEF5C;}
	.st5 {fill:#A01717;}
</style>
<g>
	<g>
		<path class="st0" d="M668,113.7c0.6-0.1,1.2-0.3,1.7-0.5L833,39.1c3.3-1.6,4.8-5.5,3.3-8.9c-1.6-3.3-5.5-4.8-8.9-3.3L700.7,84.4l-85.6-26c-0.2-0.1-0.5-0.2-0.7-0.2l-39-7.3c-0.7-0.2-1.4-0.4-2.1-0.4L446,26.5c-3.6-0.7-7.1,1.7-7.8,5.3c-0.7,3.6,1.7,7.1,5.3,7.8l99.7,18.7l-67.5,18.4c-3.6,0.9-5.7,4.6-4.7,8.2c0.8,2.9,3.5,4.9,6.5,4.9c0.6,0,1.2-0.1,1.7-0.2L573.3,64l38.2,7.2l70.9,21.6l-17.5,7.9l-94.6,14.9c-0.2,0-0.3,0.1-0.5,0.1l-9.7,2.2c-0.3,0-0.5,0.1-0.8,0.2l-54.5,12.6l-90.8,8.6l-41.7-18.6l-32.5-54c-0.7-1.1-1.6-1.9-2.7-2.5l-72.3-37.1c-3.3-1.7-7.3-0.4-9,2.9s-0.4,7.3,2.9,9l70.6,36.2l27,44.8l-46.4,3.1L238,99.7l-25.8-21.8c-0.7-0.5-1.4-0.9-2.2-1.2l-36.3-12.2l-18-28.6c-0.7-1-1.6-1.9-2.7-2.4L96,5c-3.3-1.7-7.3-0.3-9,3s-0.3,7.3,3,9l55.3,27.6l18.3,29c0.8,1.3,2,2.3,3.5,2.8L204.4,89l25.9,21.9c0.6,0.5,1.4,0.9,2.2,1.2l41.4,13.5l-17.2,1.2c-0.1,0.1-0.3,0.1-0.5,0.1l-74.7,11.4l-72.8-27.2c-0.7-0.3-1.5-0.5-2.3-0.5H6.7c-3.7,0-6.7,2.8-6.7,6.5c0,3.7,3,6.5,6.7,6.5h98.5l55.2,20.8l-71.9,27.9l-75.7,9.9c-3.7,0.5-6.3,3.8-5.8,7.5c0.4,3.3,3.3,5.8,6.6,5.8c0.3,0,0.6,0,0.8,0l76.5-10.1c0.6-0.1,1.1-0.2,1.6-0.4l83.5-32.4l82-12.4l50.8-3.5c0.1,0,0.1,0,0.2,0c0.4,0,0.7,0,1.1-0.1l56.5-3.9l43.7,19.4c1.1,0.4,2.3,0.6,3.4,0.5l93-8.8c0.3,0,0.6,0,0.9-0.1L528,139l-49.8,33.8l-79.1,37.6l-50.2,4.2c-0.1,0-0.3,0-0.4,0l-104.8,15l-119.9-10.8c-3.7-0.3-7,2.4-7.3,6.1c-0.3,3.7,2.4,7,6.1,7.3l120.6,10.9c0.2,0,0.4,0,0.6,0c0.3,0,0.6,0,0.9-0.1l105.5-15.2l33.2-2.7L321.2,315l-63.9,34.4c-3.2,1.8-4.5,5.8-2.7,9.1c1.2,2.2,3.5,3.5,5.9,3.5c1.1,0,2.2-0.2,3.3-0.7l65.3-35.2c0.9-0.5,1.7-1.2,2.3-2.1l68.3-99l84.7-40.3c0.3-0.1,0.6-0.3,0.9-0.5l78.9-53.5l8.5-2L668,113.7z"/>
		<path class="st0" d="M869.4,77.9c-2.3-2.9-6.5-3.3-9.4-1l-71.9,58.2c-0.1,0-0.1,0.1-0.2,0.1l-132,78c-3.2,1.9-4.3,6-2.4,9.2c1.3,2.1,3.5,3.3,5.8,3.3c1.2,0,2.4-0.3,3.4-0.9l115.1-68L754.5,215c-1.4,3.4,0.3,7.3,3.7,8.7c0.8,0.3,1.7,0.5,2.5,0.5c2.7,0,5.2-1.6,6.2-4.2l30-74.8l71.5-57.9C871.3,85,871.7,80.8,869.4,77.9z"/>
	</g>
	<g>
		<path class="st1" d="M718.1,45.1c19.9,8.8,21.8,28.7,21.8,28.7s-16,12-35.9,3.2s-21.8-28.7-21.8-28.7S698.2,36.4,718.1,45.1z"/>
		<path class="st1" d="M751.5,77.3c7.7-17.4,25.1-19.1,25.1-19.1s10.5,14,2.8,31.4s-25.1,19.1-25.1,19.1S743.8,94.8,751.5,77.3z"/>
		<path class="st1" d="M575.6,138.5c7.7-17.4,25.1-19.1,25.1-19.1s10.5,14,2.8,31.4s-25.1,19.1-25.1,19.1S567.9,155.9,575.6,138.5z"/>
		<path class="st1" d="M413.9,218c7.7-17.4,25.1-19.1,25.1-19.1s10.5,14,2.8,31.4s-25.1,19.1-25.1,19.1S406.2,235.5,413.9,218z"/>
		<path class="st1" d="M755,145.5c-5.3,18.3-22.3,22.3-22.3,22.3s-12.3-12.5-7-30.8s22.3-22.3,22.3-22.3S760.3,127.2,755,145.5z"/>
		<path class="st1" d="M98.4,175.3c13-13.9,30-9.8,30-9.8s5.3,16.7-7.7,30.6c-13,13.9-30,9.8-30,9.8S85.4,189.2,98.4,175.3z"/>
		<path class="st1" d="M194.1,238.3c15.9-10.6,31.4-2.6,31.4-2.6s1.3,17.4-14.5,28c-15.9,10.6-31.4,2.6-31.4,2.6S178.2,248.9,194.1,238.3z"/>
		<path class="st1" d="M202.1,150.1c9.5-12.4,23.7-10.4,23.7-10.4s5.7,13.2-3.8,25.6c-9.5,12.4-23.7,10.4-23.7,10.4S192.6,162.6,202.1,150.1z"/>
		<path class="st1" d="M322.7,156.3c-3.8,18.7-20.4,24.1-20.4,24.1s-13.3-11.4-9.5-30.1s20.4-24.1,20.4-24.1S326.5,137.6,322.7,156.3z"/>
		<path class="st1" d="M338.8,321c-4.2-14.6,5.7-24.5,5.7-24.5s13.6,3.3,17.7,17.9c4.2,14.6-5.7,24.5-5.7,24.5S342.9,335.7,338.8,321z"/>
		<path class="st1" d="M12.9,178.3c-11-10.5-7.6-24-7.6-24s13.3-4.1,24.4,6.3c11,10.5,7.6,24,7.6,24S23.9,188.7,12.9,178.3z"/>
		<path class="st1" d="M521.5,99.5c12.4,14.5,6.4,30.9,6.4,30.9s-17.2,3.4-29.6-11.1C486,104.9,492,88.4,492,88.4S509.1,85,521.5,99.5z"/>
		<path class="st1" d="M593.8,33.6c5.8,14.9-3.5,26.2-3.5,26.2s-14.5-2.1-20.3-16.9c-5.8-14.9,3.5-26.2,3.5-26.2S588.1,18.8,593.8,33.6z"/>
		<path class="st1" d="M356.6,54.4c-2.4,15.8-16.1,20.9-16.1,20.9s-11.5-9-9.1-24.8s16.1-20.9,16.1-20.9S359.1,38.7,356.6,54.4z"/>
		<path class="st1" d="M242.4,341.9c13.7-0.9,20.7,9.6,20.7,9.6s-5.4,11.4-19.2,12.3c-13.7,0.9-20.7-9.6-20.7-9.6S228.6,342.9,242.4,341.9z"/>
		<path class="st1" d="M173.4,205.1c7.9,11.3,2.3,22.7,2.3,22.7s-12.6,1.2-20.4-10.1c-7.9-11.3-2.3-22.7-2.3-22.7S165.6,193.8,173.4,205.1z"/>
		<path class="st1" d="M509,24.1c3.8,9.8-2.3,17.2-2.3,17.2s-9.5-1.4-13.3-11.1c-3.8-9.8,2.3-17.2,2.3-17.2S505.2,14.3,509,24.1z"/>
		<path class="st1" d="M268.5,17.4c3.8,9.8-2.3,17.2-2.3,17.2s-9.5-1.4-13.3-11.1c-3.8-9.8,2.3-17.2,2.3-17.2S264.8,7.6,268.5,17.4z"/>
		<path class="st1" d="M422.1,162.6c-14.9,5.8-26.3-3.6-26.3-3.6s2.1-14.5,17-20.3s26.3,3.6,26.3,3.6S437,156.8,422.1,162.6z"/>
		<path class="st1" d="M304.2,88.5c4.9,12.7-3,22.3-3,22.3S288.9,109,284,96.3c-5-12.6,3-22.3,3-22.3S299.3,75.8,304.2,88.5z"/>
		<path class="st1" d="M54.9,100.3c3.8,9.8-2.3,17.2-2.3,17.2s-9.5-1.4-13.3-11.1c-3.8-9.8,2.3-17.2,2.3-17.2S51.1,90.6,54.9,100.3z"/>
		<path class="st1" d="M305,244.5c-1.6,10.3-10.6,13.7-10.6,13.7s-7.6-5.9-6-16.3c1.6-10.3,10.6-13.7,10.6-13.7S306.6,234.2,305,244.5z"/>
		<path class="st1" d="M352.1,266.7c-10.4,1.2-16-6.7-16-6.7s3.8-8.8,14.2-10c10.4-1.1,16,6.7,16,6.7S362.5,265.5,352.1,266.7z"/>
		<path class="st1" d="M691.2,234.8c-2,10.3-11.1,13.3-11.1,13.3s-7.4-6.2-5.4-16.5s11.1-13.3,11.1-13.3S693.1,224.5,691.2,234.8z"/>
		<path class="st1" d="M454.1,46c10.4-9.7,22.9-5.8,22.9-5.8s3.1,12.7-7.3,22.5c-10.4,9.7-22.9,5.8-22.9,5.8S443.7,55.8,454.1,46z"/>
		<path class="st1" d="M93.1,30.9c10.4-9.7,22.9-5.8,22.9-5.8s3.1,12.7-7.3,22.5c-10.4,9.7-22.9,5.8-22.9,5.8S82.7,40.7,93.1,30.9z"/>
		<path class="st1" d="M158.6,57.4c13.9,3,17.8,15.6,17.8,15.6s-8.7,9.8-22.6,6.7c-14-3-17.8-15.5-17.8-15.5S144.7,54.4,158.6,57.4z"/>
		<path class="st1" d="M212.2,97.4c14.3-0.1,20.8,11.2,20.8,11.2s-6.3,11.5-20.6,11.6S191.6,109,191.6,109S197.9,97.5,212.2,97.4z"/>
	</g>
	<g>
		<g>
			<path class="st2" d="M466.6,120.1c3.2-5.9,2.4-13.3-2.5-18.4c-4.8-5.1-12.3-6.2-18.3-3.3c-4.6-4.8-11.9-6.4-18.3-3.3c-6.3,3-9.7,9.7-8.8,16.3c-6,2.9-9.8,9.4-8.8,16.3c0.9,7,6.3,12.2,12.8,13.4c0.9,6.6,5.9,12.2,12.8,13.4c6.9,1.3,13.6-2.2,16.7-8c6.5,1.2,13.4-1.9,16.7-8C472.4,132.3,471.2,124.9,466.6,120.1z"/>
			<path class="st3" d="M448.8,122.4c0.2-1.6-0.4-3.3-1.6-4.6c-1.2-1.3-2.9-1.9-4.5-1.8c-1.5-0.7-3.3-0.7-5,0.1c-1.6,0.8-2.7,2.2-3.1,3.8c-1.1,1.2-1.7,2.9-1.4,4.7c0.2,1.8,1.2,3.3,2.6,4.2c0.8,1.4,2.3,2.5,4,2.8c1.8,0.3,3.5-0.2,4.8-1.2c1.6-0.4,3.1-1.4,3.9-3C449.4,125.8,449.4,124,448.8,122.4z"/>
			<polygon class="st4" points="445.5,125 442.3,123.4 444.9,120.9 444,120 441.6,122.3 440.1,119 438.6,119.8 440.1,123 436.8,123.5 437,124.7 440.5,124.2 439.9,127.7 441.1,128 441.7,124.5 444.9,126.2 "/>
		</g>
		<g>
			<path class="st2" d="M811.8,169.3c-2.6-6.5-9-10.4-15.6-10c-2.4-6.2-8.6-10.4-15.6-10s-12.7,5.3-14.3,11.8c-6.6,0.4-12.6,5-14.3,11.8c-1.8,6.8,1.2,13.7,6.8,17.3c-1.7,6.4,0.9,13.5,6.8,17.3c5.9,3.8,13.4,3.1,18.5-1.1c5.6,3.6,13.1,3.4,18.5-1.1s7.1-11.8,4.7-18C812.3,183.1,814.4,175.9,811.8,169.3z"/>
			<path class="st3" d="M790,177.8c-0.7-1.7-2-2.9-3.5-3.4c-1.2-1.2-2.8-1.9-4.6-1.8c-1.8,0.1-3.3,1-4.3,2.3c-1.5,0.7-2.7,2.1-3.1,3.8c-0.5,1.7-0.1,3.5,0.9,4.8c0.2,1.6,1.1,3.2,2.7,4.1c1.5,1,3.3,1.2,4.9,0.7c1.6,0.3,3.4-0.1,4.8-1.2c1.4-1.1,2.1-2.8,2.1-4.4C790.5,181.3,790.7,179.5,790,177.8z"/>
			<polygon class="st4" points="786.8,179.8 786.3,178.6 783.2,179.9 783,176.3 781.3,176.4 781.5,180 778.3,179.1 778,180.3 781.4,181.2 779.5,184.2 780.6,184.9 782.5,181.9 784.7,184.7 785.7,183.9 783.4,181.1 			"/>
		</g>
		<g>
			<path class="st2" d="M325.2,117.2c-1.3-6-6.3-10.4-12.1-11c-1.2-5.7-5.9-10.3-12.1-11c-6.1-0.7-11.8,2.8-14.2,8.1c-5.8-0.6-11.7,2.5-14.2,8.1s-1,12.1,3.3,16c-2.4,5.3-1.3,11.8,3.3,16c4.6,4.2,11.2,4.7,16.2,1.8c4.3,3.9,10.9,4.9,16.2,1.8c5.4-3.1,7.9-9.2,6.7-14.9C323.6,129.2,326.5,123.2,325.2,117.2z"/>
			<path class="st3" d="M305.1,121.3c-0.3-1.5-1.3-2.8-2.6-3.5c-0.8-1.2-2.1-2.1-3.7-2.2c-1.6-0.2-3,0.4-4.1,1.4c-1.4,0.4-2.6,1.4-3.3,2.8c-0.6,1.4-0.6,3,0,4.3c0,1.5,0.5,2.9,1.7,4c1.2,1.1,2.7,1.5,4.1,1.3c1.4,0.5,2.9,0.4,4.3-0.4c1.4-0.8,2.2-2.1,2.5-3.5C305,124.4,305.4,122.9,305.1,121.3z"/>
			<polygon class="st4" points="301.9,122.6 301.7,121.5 298.8,122.1 299.2,118.9 297.7,118.8 297.3,121.9 294.7,120.7 294.2,121.7 297.1,123 295,125.3 295.8,126.1 297.9,123.7 299.4,126.5 300.4,125.9 298.8,123.2 			"/>
		</g>
		<g>
			<path class="st2" d="M221.9,55.4c-3.1-5.4-9.2-7.9-14.9-6.6c-2.9-5.1-8.9-7.9-14.9-6.7c-6,1.3-10.3,6.3-10.9,12.1c-5.7,1.2-10.3,6-10.9,12.1c-0.6,6.1,2.8,11.8,8.2,14.2c-0.6,5.8,2.5,11.6,8.2,14.2c5.6,2.5,12.1,1,16-3.4c5.4,2.4,11.9,1.2,16-3.4s4.6-11.2,1.7-16.3C224.1,67.3,225,60.7,221.9,55.4z"/>
			<path class="st3" d="M204,65.7c-0.8-1.4-2.1-2.2-3.5-2.5c-1.2-0.9-2.7-1.3-4.2-1s-2.8,1.3-3.5,2.6c-1.2,0.8-2.1,2.1-2.2,3.7c-0.2,1.6,0.4,3,1.4,4.1c0.4,1.4,1.4,2.6,2.8,3.3c1.4,0.6,3,0.6,4.3-0.1c1.5,0,2.9-0.5,4-1.7s1.5-2.7,1.3-4.1C204.9,68.6,204.8,67,204,65.7z"/>
			<polygon class="st4" points="201.6,67.9 200.9,66.7 198.1,68.2 197.5,65.4 196.4,65.6 197.1,68.7 194,68.3 193.9,69.4 197,69.8 195.7,72.6 196.7,73.1 198,70.2 200.3,72.3 201.1,71.5 198.9,69.5"/>
		</g>
		<g>
			<path class="st2" d="M151.4,120.9c0.2-7-4.3-13.1-10.6-15.3c0.2-6.7-3.9-12.9-10.6-15.3c-6.6-2.3-13.7,0-17.8,5.3
				c-6.3-2.2-13.5-0.3-17.8,5.3c-4.3,5.6-4.2,13.1-0.4,18.6c-4,5.3-4.4,12.8-0.4,18.6s11.1,8.1,17.5,6.1c3.8,5.5,10.8,8.2,17.5,6.2
				s11.1-8.1,11.3-14.8C146.5,133.7,151.2,127.9,151.4,120.9z"/>
			<path class="st3" d="M128,120.3c0-1.8-0.7-3.4-2-4.5c-0.6-1.5-1.8-2.8-3.5-3.4s-3.5-0.4-4.9,0.5c-1.7,0.1-3.3,0.9-4.3,2.3
				c-1.1,1.4-1.4,3.2-1.1,4.8c-0.4,1.6-0.2,3.4,0.8,4.9s2.6,2.3,4.2,2.5c1.4,0.9,3.2,1.2,4.9,0.7c1.7-0.5,3-1.7,3.7-3.3
				C127.1,123.7,128,122.1,128,120.3z"/>
			<polygon class="st4" points="124.2,119.6 120.9,119.5 122.1,116.1 120.5,115.6 119.3,119 116.7,116.9 115.9,117.9 118.7,120.1 
				115.8,122.1 116.5,123.2 119.5,121.1 120.5,124.5 121.7,124.2 120.7,120.8 124.2,120.9 			"/>
		</g>
		<g>
			<path class="st2" d="M642.1,83.6c-1.5-7.4-7.5-12.7-14.6-13.5c-1.4-7-7.1-12.6-14.6-13.5s-14.4,3.2-17.4,9.7
				c-7.1-0.8-14.2,2.9-17.4,9.7c-3.2,6.8-1.4,14.7,3.9,19.5c-3,6.5-1.7,14.4,3.9,19.5c5.5,5.1,13.5,5.8,19.8,2.3
				c5.2,4.9,13.2,6,19.8,2.4c6.6-3.7,9.7-11.1,8.3-18.1C639.9,98.2,643.5,91,642.1,83.6z"/>
			<path class="st3" d="M617.5,88.5c-0.4-1.9-1.5-3.4-3.1-4.3c-1-1.5-2.6-2.5-4.5-2.8c-1.9-0.2-3.7,0.4-5,1.6
				c-1.7,0.5-3.2,1.7-4,3.4c-0.8,1.7-0.7,3.7,0,5.3c-0.1,1.8,0.6,3.6,2,4.9s3.3,1.8,5,1.6c1.7,0.6,3.6,0.5,5.3-0.4s2.8-2.5,3.1-4.3
				C617.3,92.3,617.8,90.4,617.5,88.5z"/>
			<polygon class="st4" points="613.6,90 613.3,88.7 609.8,89.4 610.2,85.7 608.5,85.5 608.1,89.2 604.8,87.6 604.2,88.9 
				607.7,90.5 605.1,93.3 606.1,94.2 608.7,91.4 610.5,94.7 611.7,94 609.9,90.7 			"/>
		</g>
		<g>
			<path class="st2" d="M401.1,205.7c4-5.9,3.9-14-0.8-19.9c-4.7-5.9-12.5-7.9-19.2-5.4c-4.4-5.6-12.1-8-19.2-5.4
				s-11.4,9.4-11.1,16.6c-6.7,2.5-11.4,9-11.1,16.6c0.3,7.5,5.5,13.7,12.3,15.7c0.3,7.1,5.1,13.6,12.3,15.7c7.2,2,14.7-0.9,18.7-6.9
				c6.9,1.9,14.5-0.6,18.7-6.9C406.1,219.4,405.5,211.3,401.1,205.7z"/>
			<path class="st3" d="M381.9,206.5c0.3-1.7,0-3.6-1.2-5.1s-2.9-2.3-4.7-2.4c-1.6-0.9-3.5-1.1-5.3-0.4c-1.8,0.7-3.1,2.1-3.7,3.7
				c-1.3,1.2-2.1,3-2,4.9s1,3.6,2.4,4.7c0.7,1.6,2.2,2.9,4,3.4s3.7,0.2,5.2-0.8c1.8-0.2,3.4-1.2,4.5-2.8
				C382.1,210.1,382.4,208.2,381.9,206.5z"/>
			<polygon class="st4" points="378,208.9 375,206.8 377.9,204.6 376.9,203.2 374,205.5 372.7,202.1 371.4,202.6 372.8,206.1 
				369,206.3 369,207.6 372.8,207.5 371.8,211.2 373.1,211.5 374.1,207.9 377.3,210 			"/>
		</g>
		<g>
			<path class="st2" d="M813.9,34.7c3.8-5.6,3.8-13.3-0.6-18.9c-4.4-5.6-11.8-7.6-18.2-5.2c-4.2-5.3-11.4-7.6-18.1-5.2
				c-6.7,2.4-10.8,8.8-10.5,15.6c-6.4,2.3-10.9,8.6-10.7,15.7c0.2,7.2,5.1,13.1,11.7,14.9c0.2,6.8,4.7,13,11.6,15
				c6.9,2,14-0.9,17.8-6.5c6.5,1.8,13.8-0.5,17.7-6.4C818.6,47.8,818.2,40.1,813.9,34.7z M787.9,35.6
				C787.9,35.6,788,35.7,787.9,35.6C788,35.7,787.9,35.7,787.9,35.6C787.9,35.7,787.9,35.6,787.9,35.6
				C787.9,35.6,787.9,35.6,787.9,35.6z"/>
			<path class="st3" d="M795.7,35.3c0.3-1.6-0.1-3.4-1.2-4.8c-1.1-1.4-2.8-2.2-4.5-2.3c-1.5-0.8-3.3-1-4.9-0.4
				c-1.7,0.6-2.9,1.9-3.5,3.5c-1.3,1.1-2,2.8-2,4.6c0.1,1.8,0.9,3.4,2.2,4.4c0.7,1.5,2,2.8,3.8,3.3c1.7,0.5,3.5,0.2,4.8-0.7
				c1.8-0.1,3.4-1.1,4.5-2.6C796,38.7,796.2,36.9,795.7,35.3z"/>
			<polygon class="st4" points="792.1,37.6 789.1,35.6 791.9,33.3 791.1,32.3 788.4,34.5 787.2,31 785.6,31.6 786.8,35 783.5,35.2 
				783.5,36.4 787.1,36.3 786.1,39.8 787.3,40.2 788.4,36.6 791.3,38.6 			"/>
		</g>
		<g>
			<path class="st2" d="M716.6,102.8c3.1-4.6,3-10.7-0.5-15.3c-3.6-4.6-9.6-6.1-14.7-4.2c-3.4-4.3-9.3-6.2-14.7-4.2
				s-8.8,7.2-8.6,12.7c-5.2,1.9-8.8,6.9-8.6,12.7c0.2,5.8,4.2,10.6,9.4,12.1c0.2,5.5,3.9,10.5,9.4,12.1c5.6,1.6,11.3-0.7,14.4-5.2
				c5.3,1.5,11.2-0.4,14.4-5.2C720.4,113.3,720,107.1,716.6,102.8z"/>
			<path class="st3" d="M701.8,103.3c0.3-1.3,0-2.8-0.9-4s-2.2-1.8-3.6-1.8c-1.2-0.7-2.7-0.9-4-0.4c-1.4,0.5-2.4,1.6-2.9,2.9
				c-1,0.9-1.6,2.3-1.6,3.7c0.1,1.5,0.8,2.8,1.8,3.6c0.6,1.2,1.6,2.3,3.1,2.7c1.4,0.4,2.9,0.1,4-0.6c1.4-0.2,2.7-0.9,3.5-2.1
				C702,106.1,702.2,104.6,701.8,103.3z"/>
			<polygon class="st4" points="698.9,105.1 696.4,103.5 698.7,101.7 698.1,100.9 695.9,102.6 694.9,99.8 693.7,100.3 694.7,103 
				691.9,103.1 691.9,104.2 694.9,104.1 694,106.9 695,107.2 695.9,104.3 698.3,106 			"/>
		</g>
	</g>
	<g>
		<g>
			<g>
				<path class="st5" d="M417.9,2.9L417.9,2.9c7.1-1.6,23.3,10.6,25.9,21.9c1.4,6.1-1.3,11.5-5.2,15.4c4.5-1,8.6-3.4,10.9-5.7
					c5.2-5.2,10.1-18.6,2-26.8C443.3-0.4,423-2.3,417.9,2.9z"/>
				<path class="st5" d="M417.9,2.9L417.9,2.9L417.9,2.9z"/>
				<path class="st2" d="M417.9,2.9L417.9,2.9c-5.2,5.2-3.3,25.4,4.8,33.6c0.2,0.2,0.4,0.4,0.6,0.5c4.4,3.9,10.1,4.4,15.3,3.2
					c3.9-3.9,6.6-9.3,5.2-15.4C441.2,13.5,425,1.2,417.9,2.9z"/>
			</g>
			<path class="st1" d="M446.2,30.5c-1.4,1.4-1.9,3.3-1.4,4.7c-1,1-1.6,2.2-1.6,3.4c2.6-1.1,4.8-2.6,6.3-4.1
				c1.6-1.6,3.2-4.1,4.4-6.9c-1,0.1-2.1,0.7-3,1.6C449.5,28.6,447.6,29.1,446.2,30.5z"/>
		</g>
		<g>
			<g>
				<path class="st5" d="M47.8,206.6L47.8,206.6c-2-5.8,6.8-20.6,16.1-23.9c5-1.8,9.8,0.1,13.5,3c-1.3-3.7-3.6-6.9-5.8-8.7
					c-4.8-3.9-16.6-6.8-22.8,0.8C42.6,185.5,43,202.8,47.8,206.6z"/>
				<path class="st5" d="M47.8,206.6L47.8,206.6L47.8,206.6z"/>
				<path class="st2" d="M47.8,206.6L47.8,206.6c4.8,3.9,21.7,0.5,27.9-7.1c0.1-0.2,0.3-0.4,0.4-0.5c2.9-4.1,2.8-8.9,1.3-13.2
					c-3.7-2.9-8.5-4.8-13.5-3C54.6,186,45.7,200.8,47.8,206.6z"/>
			</g>
			<path class="st1" d="M68.5,180.2c1.3,1.1,3,1.3,4.1,0.7c0.9,0.7,2,1.1,3,1c-1.2-2.1-2.6-3.8-4-4.9c-1.5-1.2-3.7-2.3-6.2-3.1
				c0.2,0.9,0.8,1.7,1.6,2.4C66.6,177.6,67.2,179.1,68.5,180.2z"/>
		</g>
		<g>
			<g>
				<path class="st5" d="M227.5,198.9L227.5,198.9c6.5,0.7,16.6,15.7,15.5,26c-0.6,5.6-4.4,9.3-8.9,11.5c4.1,0.4,8.2-0.3,10.9-1.6
					c5.8-2.9,13.9-12.8,9.4-22C249.9,203.5,233.4,196.1,227.5,198.9z"/>
				<path class="st5" d="M227.5,198.9L227.5,198.9L227.5,198.9z"/>
				<path class="st2" d="M227.5,198.9L227.5,198.9c-5.8,2.9-10.2,20.5-5.7,29.7c0.1,0.2,0.2,0.4,0.3,0.6c2.5,4.6,7.3,6.6,12,7.1
					c4.4-2.2,8.3-5.9,8.9-11.5C244.1,214.7,234,199.6,227.5,198.9z"/>
			</g>
			<path class="st1" d="M243.4,230.5c-1.6,0.8-2.6,2.2-2.5,3.6c-1.1,0.5-1.9,1.4-2.3,2.4c2.5-0.2,4.8-0.8,6.5-1.7
				c1.8-0.9,3.9-2.5,5.7-4.5c-0.9-0.2-2,0-3,0.5C246.8,229.8,245,229.7,243.4,230.5z"/>
		</g>
		<g>
			<g>
				<path class="st5" d="M683.2,154.5L683.2,154.5c6.5,0.7,16.6,15.7,15.5,26c-0.6,5.6-4.4,9.3-8.9,11.5c4.1,0.4,8.2-0.3,10.9-1.6
					c5.8-2.9,13.9-12.8,9.4-22C705.6,159.1,689.1,151.7,683.2,154.5z"/>
				<path class="st5" d="M683.2,154.5L683.2,154.5L683.2,154.5z"/>
				<path class="st2" d="M683.2,154.5L683.2,154.5c-5.8,2.9-10.2,20.5-5.7,29.7c0.1,0.2,0.2,0.4,0.3,0.6c2.5,4.6,7.3,6.6,12,7.1
					c4.4-2.2,8.3-5.9,8.9-11.5C699.8,170.3,689.7,155.2,683.2,154.5z"/>
			</g>
			<path class="st1" d="M699.1,186.1c-1.6,0.8-2.6,2.2-2.5,3.6c-1.1,0.5-1.9,1.4-2.3,2.4c2.5-0.2,4.8-0.8,6.5-1.7
				c1.8-0.9,3.9-2.5,5.7-4.5c-0.9-0.2-2,0-3,0.5C702.5,185.4,700.7,185.3,699.1,186.1z"/>
		</g>
		<g>
			<g>
				<path class="st5" d="M271.3,314.7L271.3,314.7c4.6-4.6,22.6-3.1,30,4.1c4,3.9,4.5,9.3,3.4,14.1c2.9-2.9,4.9-6.6,5.5-9.5
					c1.4-6.3-1.3-18.9-11.3-21.1C288.8,300.1,272.7,308.4,271.3,314.7z"/>
				<path class="st5" d="M271.3,314.7L271.3,314.7L271.3,314.7z"/>
				<path class="st2" d="M271.3,314.7L271.3,314.7c-1.4,6.3,9.6,20.7,19.7,23c0.2,0.1,0.5,0.1,0.7,0.1c5.2,0.9,9.7-1.5,13-4.9
					c1.1-4.8,0.6-10.2-3.4-14.1C293.9,311.6,275.8,310.1,271.3,314.7z"/>
			</g>
			<path class="st1" d="M305.8,322c-0.4,1.8,0.1,3.4,1.2,4.2c-0.3,1.2-0.1,2.4,0.4,3.3c1.4-2.1,2.3-4.2,2.7-6.1c0.4-2,0.5-4.6,0-7.3
				c-0.7,0.6-1.3,1.5-1.5,2.6C307.4,318.9,306.2,320.2,305.8,322z"/>
		</g>
		<g>
			<g>
				<path class="st5" d="M450.9,232.8L450.9,232.8c-6.1-2.4-11.8-19.7-8-29.4c2.1-5.2,6.8-7.8,11.7-8.7c-3.9-1.5-8-1.9-11-1.4
					c-6.4,1.2-17,8.6-15.1,18.8C430.4,222.3,444.5,234,450.9,232.8z"/>
				<path class="st5" d="M450.9,232.8L450.9,232.8L450.9,232.8z"/>
				<path class="st2" d="M450.9,232.8L450.9,232.8c6.4-1.2,15.4-17.1,13.5-27.3c0-0.2-0.1-0.5-0.2-0.7c-1.2-5.1-5.2-8.4-9.7-10.1
					c-4.9,0.9-9.7,3.5-11.7,8.7C439.1,213.1,444.8,230.4,450.9,232.8z"/>
			</g>
			<path class="st1" d="M444,198c1.8-0.3,3.1-1.5,3.4-2.8c1.2-0.2,2.3-0.8,2.9-1.7c-2.5-0.5-4.9-0.5-6.7-0.1c-2,0.4-4.4,1.4-6.8,2.9
				c0.8,0.4,1.9,0.6,3,0.4C440.6,197.7,442.3,198.3,444,198z"/>
		</g>
	</g>
</g>
</svg>
