<?xml version="1.0" encoding="utf-8"?>
<!-- Generator: Adobe Illustrator 25.0.1, SVG Export Plug-In . SVG Version: 6.00 Build 0)  -->
<svg version="1.1" id="Layer_1" xmlns="http://www.w3.org/2000/svg" xmlns:xlink="http://www.w3.org/1999/xlink" x="0px" y="0px"
	 viewBox="0 0 100 205.9" style="enable-background:new 0 0 100 205.9;" xml:space="preserve">
<style type="text/css">
	.st0{fill:#F7746D;}
	.st1{fill:#996D4B;}
</style>
<g>
	<g>
		<path class="st0" d="M100,81.5c0,38.8-22.4,59.1-50,59.1c-27.6,0-50-20.3-50-59.1C0,42.7,22.4,0,50,0C77.6,0,100,42.7,100,81.5z"
			/>
	</g>
	<g>
		<g>
			<path class="st1" d="M50,77.8c-0.8,0-1.5-0.3-2.1-0.9L31.6,60.6c-1.2-1.2-1.2-3.1,0-4.2c1.2-1.2,3.1-1.2,4.2,0L50,70.6l14.2-14.2
				c1.2-1.2,3.1-1.2,4.2,0c1.2,1.2,1.2,3.1,0,4.2L52.1,76.9C51.5,77.5,50.8,77.8,50,77.8z"/>
		</g>
		<g>
			<path class="st1" d="M50,116.6c-0.8,0-1.5-0.3-2.1-0.9L31.6,99.4c-1.2-1.2-1.2-3.1,0-4.2c1.2-1.2,3.1-1.2,4.2,0L50,109.4
				l14.2-14.2c1.2-1.2,3.1-1.2,4.2,0c1.2,1.2,1.2,3.1,0,4.2l-16.3,16.3C51.5,116.3,50.8,116.6,50,116.6z"/>
		</g>
		<g>
			<path class="st1" d="M50.2,206.2c-1.6,0-3.5-1.3-3.5-3V35c0-1.6,1.8-3,3.5-3s3.5,1.3,3.5,3v168.3
				C53.6,204.9,51.8,206.2,50.2,206.2z"/>
		</g>
	</g>
</g>
</svg>
