<?xml version="1.0" encoding="utf-8"?>
<!-- Generator: Adobe Illustrator 25.0.1, SVG Export Plug-In . SVG Version: 6.00 Build 0)  -->
<svg version="1.1" id="Layer_1" xmlns="http://www.w3.org/2000/svg" xmlns:xlink="http://www.w3.org/1999/xlink" x="0px" y="0px"
	 viewBox="0 0 100 270.3" style="enable-background:new 0 0 100 270.3;" xml:space="preserve">
<style type="text/css">
	.st0{fill:#F7746D;}
	.st1{fill:#996D4B;}
</style>
<g>
	<g>
		<path class="st0" d="M100,101c0,55.8-22.4,101-50,101c-27.6,0-50-45.2-50-101C0,45.2,22.4,0,50,0C77.6,0,100,45.2,100,101z"/>
	</g>
	<g>
		<g>
			<path class="st1" d="M49.9,114.3c-0.9,0-1.9-0.4-2.6-1.1L27.5,93.4c-1.4-1.4-1.4-3.7,0-5.1c1.4-1.4,3.7-1.4,5.1,0l17.3,17.3
				l17.3-17.3c1.4-1.4,3.7-1.4,5.1,0c1.4,1.4,1.4,3.7,0,5.1l-19.8,19.8C51.7,113.9,50.8,114.3,49.9,114.3z"/>
		</g>
		<g>
			<path class="st1" d="M49.9,161.4c-0.9,0-1.9-0.4-2.6-1.1l-19.8-19.8c-1.4-1.4-1.4-3.7,0-5.1c1.4-1.4,3.7-1.4,5.1,0l17.3,17.3
				l17.3-17.3c1.4-1.4,3.7-1.4,5.1,0c1.4,1.4,1.4,3.7,0,5.1l-19.8,19.8C51.7,161.1,50.8,161.4,49.9,161.4z"/>
		</g>
		<g>
			<path class="st1" d="M49.6,270.3c-2,0-3.6-1.6-3.6-3.6V62.3c0-2,1.6-3.6,3.6-3.6s3.6,1.6,3.6,3.6v204.4
				C53.2,268.7,51.6,270.3,49.6,270.3z"/>
		</g>
	</g>
</g>
</svg>
