<?xml version="1.0" encoding="utf-8"?>
<!-- Generator: Adobe Illustrator 25.0.1, SVG Export Plug-In . SVG Version: 6.00 Build 0)  -->
<svg version="1.1" id="Layer_1" xmlns="http://www.w3.org/2000/svg" xmlns:xlink="http://www.w3.org/1999/xlink" x="0px" y="0px"
	 viewBox="0 0 110.7 196.3" style="enable-background:new 0 0 110.7 196.3;" xml:space="preserve">
<style type="text/css">
	.st0{fill:#F7746D;}
	.st1{fill:#996D4B;}
</style>
<g>
	<g>
		<path class="st0" d="M0,68.5C0,38,24.8,0,55.4,0s55.4,38,55.4,68.5c0,30.6-24.8,55.4-55.4,55.4S0,99.1,0,68.5z"/>
	</g>
</g>
<g>
	<g>
		<path class="st0" d="M0,68.5C0,38,24.8,0,55.4,0c30.6,0,55.4,38,55.4,68.5s-24.8,55.4-55.4,55.4C24.8,123.9,0,99.1,0,68.5z"/>
	</g>
	<g>
		<path class="st1" d="M55.4,196.3c-2.9,0-5.5-2.4-5.5-5.3V62.1c0-2.9,2.6-5.3,5.5-5.3c2.9,0,5.5,2.4,5.5,5.3V191
			C60.9,193.9,58.3,196.3,55.4,196.3z"/>
	</g>
</g>
</svg>
