<?xml version="1.0" encoding="utf-8"?>
<!-- Generator: Adobe Illustrator 25.0.1, SVG Export Plug-In . SVG Version: 6.00 Build 0)  -->
<svg version="1.1" id="Layer_1" xmlns="http://www.w3.org/2000/svg" xmlns:xlink="http://www.w3.org/1999/xlink" x="0px" y="0px"
	 viewBox="0 0 100 148.2" style="enable-background:new 0 0 100 148.2;" xml:space="preserve">
<style type="text/css">
	.st0{fill:#F7746D;}
	.st1{fill:#996D4B;}
</style>
<g>
	<g>
		<g>
			<path class="st0" d="M-1152.5,478.8c0,46.4-37.6,84-84,84c-46.4,0-84-37.6-84-84c0-46.4,37.6-84,84-84
				C-1190.1,394.8-1152.5,432.4-1152.5,478.8z"/>
		</g>
		<g>
			<path class="st0" d="M-1219.2,609.1c0-29.7,24.1-53.8,53.8-53.8c29.7,0,53.8,24.1,53.8,53.8c0,29.7-24.1,53.8-53.8,53.8
				C-1195.1,662.9-1219.2,638.8-1219.2,609.1z"/>
		</g>
		<g>
			<path class="st0" d="M-1385,655.8c0-35.5,28.7-64.2,64.2-64.2c35.5,0,64.2,28.7,64.2,64.2c0,35.5-28.7,64.2-64.2,64.2
				C-1356.3,720-1385,691.3-1385,655.8z"/>
		</g>
	</g>
	<path class="st1" d="M-1144.5,618.7c-2.1-2.1-5.4-2.1-7.5,0l-8.1,8.1l-0.1-35.6c0-2.9-2.4-5.3-5.3-5.3c0,0,0,0,0,0
		c-2.9,0-5.3,2.4-5.3,5.3l0.1,35.1l-7.7-7.7c-2.1-2.1-5.4-2-7.5,0c-2.1,2.1-2.1,5.4,0,7.5l15.3,15.3l0.1,28.5h-60.6V532.9l33.9-33.9
		c2.1-2.1,2.1-5.4,0-7.5c-2.1-2.1-5.4-2.1-7.4,0l-26.4,26.4v-59.6c0-2.9-2.6-5.3-5.5-5.3c-2.9,0-5.5,2.4-5.5,5.3v59.6l-26.2-26.4
		c-2.1-2.1-5.3-2.1-7.3,0c-2.1,2.1-2.2,5.4-0.2,7.5l33.7,33.9V743h-73v-41.4l21.8-22c2.1-2.1,2-5.4-0.1-7.5c-2.1-2.1-5.3-2.1-7.3,0
		l-14.4,14.5v-43.8c0-2.9-2.6-5.3-5.5-5.3c-2.9,0-5.5,2.4-5.5,5.3v43.8l-14.5-14.5c-2.1-2.1-5.4-2.1-7.4,0c-2.1,2.1-2.1,5.4,0,7.5
		l22,22v46.8c0,2.9,2.4,5.7,5.3,5.7h78.7v154.5c0,2.9,2.6,5.3,5.5,5.3c2.9,0,5.5-2.4,5.5-5.3V680h65.9c1.4,0,2.7-0.3,3.7-1.3
		c1-1,1.5-2.2,1.5-3.6l-0.1-33.4l15.5-15.5C-1142.4,624.1-1142.4,620.8-1144.5,618.7z"/>
</g>
<g>
	<g>
		<g>
			<circle class="st0" cx="47" cy="26.3" r="26.3"/>
		</g>
		<g>
			<path class="st0" d="M58.2,65.4c0-11.6,9.4-20.9,20.9-20.9c11.6,0,20.9,9.4,20.9,20.9c0,11.6-9.4,20.9-20.9,20.9
				C67.5,86.3,58.2,76.9,58.2,65.4z"/>
		</g>
		<g>
			
				<ellipse transform="matrix(0.2298 -0.9732 0.9732 0.2298 -55.2924 76.8712)" class="st0" cx="20.9" cy="73.4" rx="20.9" ry="20.9"/>
		</g>
	</g>
	<path class="st1" d="M88.5,68.8c-0.9-0.9-2.4-0.9-3.4,0l-3.7,3.7l0-7c0-1.3-1.1-2.3-2.4-2.3c0,0,0,0,0,0c-1.3,0-2.4,1-2.4,2.3
		l0,6.8l-3.5-3.5c-0.9-0.9-2.4-0.9-3.4,0c-0.9,0.9-0.9,2.4,0,3.4l6.9,7L76.8,92H49.7V45l12.2-12.3c0.9-0.9,0.9-2.4,0-3.4
		c-0.9-0.9-2.4-0.9-3.3,0l-8.9,8.9v-12c0-1.3-1.2-2.4-2.5-2.4c-1.3,0-2.5,1.1-2.5,2.4v12l-8.9-8.9c-0.9-0.9-2.4-0.9-3.3,0
		c-0.9,0.9-0.9,2.4,0,3.4L44.7,45v61.9H23.6V88l6.8-6.9c0.9-0.9,0.9-2.4,0-3.4c-0.9-0.9-2.4-0.9-3.3,0l-3.5,3.6v-7.8
		c0-1.3-1.2-2.4-2.5-2.4s-2.5,1.1-2.5,2.4v7.8l-3.6-3.6c-0.9-0.9-2.4-0.9-3.3,0c-0.9,0.9-0.9,2.4,0,3.4l6.9,6.9V109
		c0,1.3,1.1,2.3,2.4,2.3h23.7v34.5c0,1.3,1.2,2.4,2.5,2.4c1.3,0,2.5-1.1,2.5-2.4V96.5h29.5c0.6,0,1.2-0.2,1.7-0.7
		c0.4-0.4,0.7-1,0.7-1.7l-0.1-15.1l7-7C89.4,71.2,89.4,69.7,88.5,68.8z"/>
</g>
</svg>
